<?xml version="1.0" encoding="UTF-8" standalone="no"?>
<svg width="956px" height="500px" viewBox="0 0 956 500" version="1.1" xmlns="http://www.w3.org/2000/svg" xmlns:xlink="http://www.w3.org/1999/xlink">
    <!-- Generator: Sketch 3.7.2 (28276) - http://www.bohemiancoding.com/sketch -->
    <title>Sprite_account</title>
    <desc>Created with Sketch.</desc>
    <defs>
        <rect id="path-1" x="0" y="0" width="956" height="500"></rect>
        <mask id="mask-2" maskContentUnits="userSpaceOnUse" maskUnits="objectBoundingBox" x="0" y="0" width="956" height="500" fill="white">
            <use xlink:href="#path-1"></use>
        </mask>
        <rect id="path-3" x="0" y="0" width="25" height="25" rx="100"></rect>
        <mask id="mask-4" maskContentUnits="userSpaceOnUse" maskUnits="objectBoundingBox" x="0" y="0" width="25" height="25" fill="white">
            <use xlink:href="#path-3"></use>
        </mask>
        <rect id="path-5" x="0" y="0" width="25" height="25" rx="100"></rect>
        <mask id="mask-6" maskContentUnits="userSpaceOnUse" maskUnits="objectBoundingBox" x="0" y="0" width="25" height="25" fill="white">
            <use xlink:href="#path-5"></use>
        </mask>
        <polygon id="path-7" points="0.0079245283 37.173913 27.9367358 37.173913 27.9367358 0.117384292 0.0079245283 0.117384292"></polygon>
    </defs>
    <g id="assets" stroke="none" stroke-width="1" fill="none" fill-rule="evenodd">
        <g id="Sprite_account">
            <use id="Rectangle-2" stroke="#979797" mask="url(#mask-2)" stroke-width="2" xlink:href="#path-1"></use>
            <g id="user" transform="translate(40.000000, 40.000000)" fill="#2A3246">
                <path d="M14.6699346,16.5 L7.33496732,16.5 C7.33496732,16.5 8.38631264,14.2755556 8.55746187,14.0555556 C8.72861111,13.8355556 9.24205882,13.4444444 11.002451,13.4444444 C12.787293,13.4444444 13.2762908,13.8355556 13.4474401,14.0555556 C13.6185893,14.2755556 14.6699346,16.5 14.6699346,16.5 L14.6699346,16.5 Z" id="Shape"></path>
                <path d="M13.2029412,14.6666667 L8.80196078,14.6666667 C8.80196078,14.6666667 9.24205882,14.08 9.29095861,13.2 C9.33985839,12.54 9.29095861,12.2222222 9.29095861,12.2222222 L12.7139434,12.2222222 C12.7139434,12.2222222 12.6405937,12.5155556 12.7139434,13.2 C12.787293,14.0066667 13.2029412,14.6666667 13.2029412,14.6666667 L13.2029412,14.6666667 Z" id="Shape"></path>
                <path d="M11.002451,1.22222222 C16.4058769,1.22222222 20.7824074,5.59777778 20.7824074,11 C20.7824074,16.4022222 16.4058769,20.7777778 11.002451,20.7777778 C5.59902505,20.7777778 1.22249455,16.4022222 1.22249455,11 C1.22249455,5.59777778 5.59902505,1.22222222 11.002451,1.22222222 L11.002451,1.22222222 Z M11.002451,0 C4.9144281,0 0,4.91333333 0,11 C0,17.0866667 4.9144281,22 11.002451,22 C17.0904739,22 22.004902,17.0866667 22.004902,11 C22.004902,4.91333333 17.0904739,0 11.002451,0 L11.002451,0 L11.002451,0 Z" id="Shape"></path>
                <path d="M11.002451,19.5555556 C13.5941394,19.5555556 15.8924292,18.4066667 17.4572222,16.5977778 C15.8924292,15.4244444 13.5941394,14.6911111 11.002451,14.6911111 C8.41076253,14.6911111 6.11247277,15.4244444 4.54767974,16.5977778 C6.11247277,18.4066667 8.41076253,19.5555556 11.002451,19.5555556 L11.002451,19.5555556 Z" id="Shape"></path>
                <path d="M14.6699346,7.94444444 C14.6699346,4.91333333 13.0317919,3.66666667 11.002451,3.66666667 C8.97311002,3.66666667 7.33496732,4.91333333 7.33496732,7.94444444 C7.33496732,10.9755556 8.97311002,13.4444444 11.002451,13.4444444 C13.0317919,13.4444444 14.6699346,10.9755556 14.6699346,7.94444444 L14.6699346,7.94444444 Z" id="Shape"></path>
            </g>
            <g id="exit" transform="translate(85.000000, 41.000000)" fill="#2A3246">
                <path d="M0.748417165,10.0746995 L8.59247706,17.9163818 L8.58176113,10.7168818 L16.1711601,10.7168818 L16.1711601,9.4564651 L8.57987009,9.4564651 L8.56915416,2.2563349 L0.748417165,10.0746995 Z M2.53104344,10.0746995 L7.31286909,5.29393906 L7.32736711,14.8699547 L2.53104344,10.0746995 Z" id="Fill-1"></path>
                <polygon id="Fill-2" transform="translate(17.141706, 10.083081) scale(-1, 1) translate(-17.141706, -10.083081) " points="13 -0.000252083333 13 20.1664146 21.283413 20.1664146 21.283413 18.9066281 14.2606975 18.9066281 14.2606975 1.26079479 21.283413 1.26079479 21.283413 -0.000252083333"></polygon>
            </g>
            <g id="money" transform="translate(38.000000, 92.000000)">
                <use id="Rectangle-47" stroke="#E5E7E9" mask="url(#mask-4)" stroke-width="2" fill="#FFFFFF" xlink:href="#path-3"></use>
                <path d="M9,11.8996021 L10.0905071,11.8996021 L10.0905071,7 L12.9012506,7 C13.4234679,7 13.8996,7.05887655 14.3296613,7.17663142 C14.7597225,7.2943863 15.1283409,7.47357581 15.4355276,7.71420533 C15.7427142,7.95483485 15.9833401,8.25945701 16.1574125,8.62808096 C16.3314849,8.99670491 16.4185198,9.43699913 16.4185198,9.94897683 C16.4185198,10.4609545 16.3263652,10.9063685 16.1420533,11.285232 C15.9577413,11.6640955 15.706876,11.978957 15.3894498,12.2298261 C15.0720236,12.4806952 14.6982855,12.6675642 14.2682242,12.7904389 C13.838163,12.9133135 13.3722702,12.9747499 12.8705321,12.9747499 L11.3192474,12.9747499 L11.3192474,14.5260346 L13.7920874,14.5260346 L13.7920874,15.5397454 L11.3192474,15.5397454 L11.3192474,17.7054003 L10.0905071,17.7054003 L10.0905071,15.5397454 L9,15.5397454 L9,14.5260346 L10.0905071,14.5260346 L10.0905071,12.9747499 L9,12.9747499 L9,11.8996021 Z M12.9012506,11.8996021 C13.6077798,11.8996021 14.1632673,11.7383316 14.5677297,11.4157856 C14.9721921,11.0932397 15.1744202,10.6043083 15.1744202,9.94897683 C15.1744202,9.29364537 14.9721921,8.81751325 14.5677297,8.52056618 C14.1632673,8.22361911 13.6077798,8.0751478 12.9012506,8.0751478 L11.3192474,8.0751478 L11.3192474,11.8996021 L12.9012506,11.8996021 Z" id="₽" fill="#2A3246"></path>
            </g>
            <g id="calendar" transform="translate(38.000000, 127.000000)">
                <use id="Rectangle-47-Copy" stroke="#E5E7E9" mask="url(#mask-6)" stroke-width="2" fill="#FFFFFF" xlink:href="#path-5"></use>
                <path d="M16.7777778,8.22222222 L16.1666667,8.22222222 L16.1666667,9.44444444 L14.3333333,9.44444444 L14.3333333,8.22222222 L10.6666667,8.22222222 L10.6666667,9.44444444 L8.83333333,9.44444444 L8.83333333,8.22222222 L8.22222222,8.22222222 C7.54938889,8.22222222 7,8.77222222 7,9.44444444 L7,16.7777778 C7,17.45 7.54938889,18 8.22222222,18 L16.7777778,18 C17.45,18 18,17.45 18,16.7777778 L18,9.44444444 C18,8.77222222 17.45,8.22222222 16.7777778,8.22222222 L16.7777778,8.22222222 Z M16.7777778,16.7777778 L8.22222222,16.7777778 L8.22222222,11.8888889 L16.7777778,11.8888889 L16.7777778,16.7777778 L16.7777778,16.7777778 Z M10.3611111,7 L9.13888889,7 L9.13888889,9.13888889 L10.3611111,9.13888889 L10.3611111,7 L10.3611111,7 Z M15.8611111,7 L14.6388889,7 L14.6388889,9.13888889 L15.8611111,9.13888889 L15.8611111,7 L15.8611111,7 Z" id="Shape" fill="#2A3246"></path>
            </g>
            <g id="credit-card" transform="translate(167.000000, 35.000000)">
                <rect id="Rectangle-39" fill="#96A0AA" x="0" y="3" width="38" height="26" rx="4"></rect>
                <g id="logo" transform="translate(230.000000, 3.000000)">
                    <polygon id="Fill-3" fill="#FF0142" points="2.00798775 39.6397667 40.0509941 39.6397667 40.0509941 1.81277686 2.00798775 1.81277686"></polygon>
                    <path d="M21.0900824,16.1357558 C17.8046801,18.6058986 9.67532905,22.9403632 5.68302665,22.0651026 C4.78425369,21.7571715 4.3365503,21.2065773 4.3365503,20.4133201 C4.3365503,19.430953 4.94078156,18.4184622 6.15092719,17.3775213 C7.06821421,16.5859376 8.63854226,15.5215672 10.8619113,14.1860835 C11.8768179,13.5702213 12.7351966,13.0045653 13.4387305,12.4924626 C14.1405813,11.9786862 14.7061013,11.5084219 15.1352907,11.0833432 C16.5406754,9.70434748 17.010259,8.75879825 17.010259,7.54046225 C17.010259,2.36755486 4.77247202,6.52964502 2.0088293,8.43580532 L2.02061096,6.05436009 C5.50966782,4.30383886 12.6813375,2.77924532 16.2494999,4.98162194 C18.4997985,6.32045271 17.9191305,9.93864286 16.6517597,11.6925112 C14.1641446,15.1349798 9.23267495,16.9909339 6.94703133,19.1966576 C5.57362545,20.5221001 6.04657527,21.6350032 9.67869524,20.7697838 C16.6130485,18.9924859 23.4699793,14.2931899 30.3555228,4.96488655 C30.4716564,4.90631271 30.8234233,4.80422686 31.4074574,4.65695548 C31.7407103,4.58331978 32.0318858,4.52139886 32.2860333,4.46951917 C32.5401807,4.41931302 32.7640324,4.37914809 32.9592714,4.3490244 C33.3295524,4.3055124 33.5348901,4.32057425 33.5736013,4.3925364 C33.6325096,4.51135763 32.3247445,5.99243917 29.6519889,8.83912809 C28.1102735,10.467481 26.9455714,11.6958582 26.1545166,12.5242598 C25.3651448,13.3543349 24.9511033,13.7894549 24.910709,13.8346404 C24.6717095,14.1124478 24.4310268,14.3919287 24.1886611,14.6697361 C24.6027026,14.4822998 25.0251595,14.3099253 25.457715,14.1492656 C26.5062835,13.7576576 27.5060422,13.4765032 28.4603573,13.3007816 C29.1150814,13.1735927 29.8724744,13.1250601 30.7308531,13.1568573 C32.2793009,13.2154312 33.4052917,13.5116475 34.5178178,14.6412859 C35.2247179,15.3575604 35.5226258,16.2428622 35.3829289,17.5934078 C36.1807161,16.1474706 36.7007926,15.2772306 37.131665,13.5869567 C35.5647032,13.491565 34.309114,13.208737 33.3682636,12.7401462 C32.4257302,12.2698819 31.7743722,11.7477379 31.4141898,11.1753878 C31.0540074,10.6013641 30.9732188,10.0474229 31.1751903,9.51356409 C31.3771617,8.98137886 31.8265482,8.59479148 32.5267159,8.35547548 C32.8431379,8.24502194 33.1881724,8.19648932 33.5584534,8.21322471 C33.9287344,8.22828655 34.2889168,8.28351332 34.6390007,8.37890502 C34.9874015,8.47429671 35.3105558,8.59479148 35.6084637,8.73871578 C35.9030054,8.88096655 36.1470542,9.03325855 36.3389271,9.19224471 C36.8892993,9.63740594 37.2966084,10.2080826 37.5608544,10.8992539 C37.8267835,11.5920989 37.9361847,12.3451912 37.8941073,13.1568573 C38.5370497,13.1417955 39.2523653,13.0681598 40.040054,12.9409709 L40.040054,13.5216887 C39.2523653,13.5969979 38.5151695,13.6271216 37.8318328,13.6103862 C37.6214458,14.9826878 37.2747282,15.797701 36.6873279,16.9557896 C37.7257977,16.080529 38.8433731,15.406093 40.040054,14.9375022 L40.040054,16.0520789 C36.9801865,16.5390786 35.4283725,19.0711422 33.8664599,21.5061407 C33.0636234,22.7579475 32.2439559,24.4482213 32.5822581,25.761949 C33.4322213,29.068861 37.907572,28.6939884 40.0518356,26.3811582 L40.0518356,27.9141195 C37.4430377,29.2161324 31.3350843,30.3943035 31.7322949,24.456589 C31.5824994,24.6155752 31.4461686,24.7745613 31.3182534,24.9335475 C31.1920212,25.0942072 31.0540074,25.261561 30.905895,25.435609 C26.9825995,30.2503792 19.3362969,36.3052413 12.8934075,37.1821755 C11.0521011,37.4332062 9.30841424,37.2507906 8.09658552,36.2935266 C4.88523941,33.7581158 7.85085359,27.9174666 11.1278404,27.4137315 C11.5519805,27.3668724 11.9273108,27.4103844 12.2555144,27.545941 C12.583718,27.6814976 12.7789571,27.8605662 12.8429147,28.0831469 C12.9708299,28.4178546 12.9220202,28.7458681 12.6998516,29.0621669 C12.4793661,29.3801392 12.2437327,29.6445582 11.8835503,29.7399499 C11.102594,30.0194309 10.4579684,29.525737 10.2627294,28.8563216 C10.1129339,28.3425453 9.52385046,28.8228509 8.99367539,29.5173693 C7.61858642,31.3147496 7.58324141,33.7112567 9.66523048,35.0032284 C11.1985304,35.9571453 13.6575329,35.8968979 16.6955202,34.877713 C23.2747402,32.6719893 31.0657891,24.3963416 30.8587683,24.3377678 C29.3490317,25.392097 27.0112121,26.936773 24.2189568,27.1024533 C20.995829,27.2949102 17.3165824,25.9527324 17.6532015,21.8709721 C17.6582507,21.8073776 17.6683493,21.7404361 17.680131,21.6668004 C17.9191305,20.1991072 19.0972974,18.1289401 21.0900824,16.1357558 Z M32.6950255,21.3739312 C33.5029113,20.2058013 34.8847326,18.2795586 34.750085,16.9440749 C34.6861274,16.3148244 34.5161347,15.8010481 34.2417902,15.4027459 C33.9657625,15.0044438 33.6123125,14.7065539 33.1763908,14.5074029 C32.7438352,14.3082518 32.2978149,14.1693481 31.8433792,14.0890182 C31.3872603,14.0103619 30.9530217,13.9768912 30.5406633,13.9936266 C30.1266218,14.0103619 29.8152491,14.0337915 29.6031791,14.0655887 C28.2045268,14.3199666 26.9506207,14.7266364 25.8380946,15.2839247 C24.7272516,15.841213 23.7628379,16.4771576 22.9482197,17.1951056 C22.1319184,17.9113801 21.4704619,18.6711666 20.9621671,19.4761386 C18.915523,22.7144355 19.9455775,25.1494339 22.5611078,25.7284782 C26.1174885,26.5167149 30.5776914,24.0833899 32.6950255,21.3739312 Z M34.7181062,9.35959855 C34.273769,9.31106594 33.9085373,9.36796625 33.622411,9.5269524 C33.3362848,9.68593855 33.1410457,9.90182502 33.0333276,10.1712647 C32.9289757,10.4423779 32.9171941,10.7402678 33.0030319,11.0682813 C33.0871867,11.3946213 33.2992567,11.7092466 33.6375589,12.0104835 C33.9775442,12.3133939 34.4370292,12.5727924 35.0193803,12.7870053 C35.6017313,13.0028918 36.3271454,13.1250601 37.1956227,13.1568573 C37.2595803,12.6798989 37.2865098,12.2230229 37.2107705,11.7962706 C36.95494,10.3386186 36.0528009,9.56879086 34.7181062,9.35959855 Z M2.02061096,15.9131752 C2.81503201,15.8328453 3.68519236,15.6604709 4.6294089,15.3960518 C5.21344302,15.2353921 5.7402519,15.0563235 6.20815243,14.8571724 C6.67605297,14.6596949 7.09682683,14.4571967 7.46710783,14.253025 C8.916253,13.4112352 9.85710336,12.4740536 10.5168768,11.4163773 C10.7895382,10.9795838 11.015073,10.5210342 11.2103121,10.0407287 C11.3718893,9.29265702 12.6560911,9.19391825 12.1444301,10.4156013 C12.0434443,10.6515702 11.8818672,10.9444395 11.6512831,11.3059238 C11.1800164,12.0506484 10.5875668,12.7284315 9.91096241,13.2622902 C9.33534377,13.7158192 8.65705631,14.1726952 7.87778311,14.6262241 C7.03791849,15.0964884 6.02301193,15.5065053 4.83306345,15.8596219 C3.83162166,16.1307352 2.8941375,16.3064567 2.02061096,16.3834395 L2.02061096,15.9131752 Z" id="Combined-Shape" fill="#FFFFFF"></path>
                    <path d="M0.411740029,0 L41.6324306,0 L41.9454863,0 L41.9454863,0.311278154 L41.9454863,41.2979086 L41.9454863,41.6091868 L41.6324306,41.6091868 L0.411740029,41.6091868 L0.0970011804,41.6091868 L0.0970011804,41.2979086 L0.0970011804,0.311278154 L0.0970011804,0 L0.411740029,0 Z M0.726478877,40.9866305 L41.3176917,40.9866305 L41.3176917,0.624229846 L0.726478877,0.624229846 L0.726478877,40.9866305 Z" id="Fill-6" fill="#2A3246"></path>
                </g>
                <path d="M314.302683,12.5290992 C313.92585,12.5290992 313.568942,12.3909166 313.340244,12.1526708 L310.245019,8.93907564 C309.842198,8.52180518 309.947018,7.92755214 310.478915,7.61102561 C311.011678,7.29313767 311.767942,7.37686404 312.170763,7.79481521 L314.207392,9.9077149 L319.327983,3.44648942 C319.68056,3.00267157 320.425562,2.86653113 320.99211,3.14357693 C321.557792,3.41994203 321.731915,4.00534594 321.378472,4.4505252 L315.32836,12.0811971 C315.11872,12.3473517 314.755748,12.513443 314.358125,12.5277378 C314.339067,12.5290992 314.321741,12.5290992 314.302683,12.5290992 L314.302683,12.5290992 Z" id="Shape" fill="#2A3246"></path>
                <g id="Group-5" transform="translate(708.000000, 51.000000)">
                    <rect id="Rectangle-29" fill="#FE9F27" opacity="0.8" x="0" y="0" width="24" height="24" rx="100"></rect>
                    <path d="M14.6082666,14.9034209 C14.6062715,14.9022657 14.6048381,14.9022657 14.6028085,14.9011104 C14.5996581,14.9011104 14.5965105,14.8988372 14.5953553,14.8988372 C14.5898972,14.8959676 14.5867467,14.8953742 14.5835963,14.8953742 C14.5801678,14.8953742 14.5778572,14.8953742 14.5770173,14.89366 C14.5709974,14.8913867 14.5655393,14.8907905 14.5589603,14.8882363 C14.4832693,14.874763 14.4098889,14.8853668 14.3459569,14.9260646 C14.2066493,15.0229601 14.1848485,15.2376806 14.2989611,15.4102671 C14.3534102,15.4879533 14.4250764,15.5421215 14.5047921,15.5702203 C14.5047921,15.5702203 14.5053511,15.5702203 14.5096568,15.5739298 C14.5096568,15.5739298 14.5151149,15.5759594 14.5171101,15.5759594 C14.5208196,15.5765184 14.5240044,15.5765184 14.5277138,15.5782326 C14.5305834,15.5782326 14.5314233,15.5796659 14.5337338,15.5808212 C14.5403128,15.5819765 14.5452119,15.585124 14.5520689,15.585124 C14.6268855,15.597723 14.7019802,15.5873973 14.7641979,15.5478576 C14.9049417,15.4512401 14.9275825,15.2373968 14.8109128,15.0645294 C14.7590552,14.987686 14.6859528,14.9314854 14.6082666,14.9034209 M17.9470453,18.2894734 C17.6041828,17.5928982 16.9958945,17.0800377 16.335115,16.6887432 C16.1072051,16.5517088 15.8497945,16.4548477 15.6230369,16.3825881 C15.1061861,16.216334 14.6048037,16.1756391 14.0203115,16.0773074 C13.5455918,15.9955993 13.17148,15.8009654 12.7687418,15.5277739 C12.5586079,15.3861558 12.3877701,15.1894951 12.2444377,14.9811099 C12.2186465,14.9395378 12.0844845,14.7769932 12.0968025,14.7205145 C12.0968025,14.7205145 12.005365,15.0934739 12.1893952,15.6174971 C10.4894503,15.5406881 9.00080022,14.6015715 8.3191315,13.4600582 C7.06266269,11.3639626 7.50441881,8.82124627 9.17940669,7.6978243 C10.8535202,6.57496133 13.4051318,7.36699884 14.7725284,9.39457864 C15.6293722,10.666513 15.8495164,12.1477069 15.4808627,13.3511256 C15.4791484,13.3594532 15.4754046,13.3683426 15.4722541,13.3775102 C14.7467028,12.8517728 14.0836529,13.1200652 14.0836529,13.1200652 C14.8109186,13.0458448 15.3856814,13.6231618 15.3856814,13.6231618 C15.4710989,13.6968576 15.5516545,13.7811227 15.6264712,13.8722792 C15.642533,13.8960752 15.6591538,13.9181542 15.6754966,13.9419502 C15.8666991,14.2007941 15.985083,14.4883361 16.0355418,14.7778704 C17.4811835,12.9486683 17.7185419,10.4151224 16.4417429,8.44773069 C14.8111966,5.94001037 11.3414065,5.30015744 8.6883127,7.01643652 C6.03610475,8.73383645 5.2050493,12.1565964 6.83331942,14.664354 C8.17261715,16.7269269 11.3098762,17.3555799 13.1110138,16.787396 C13.7904092,16.574427 16.1207127,16.3697513 17.7409362,18.2829375 C17.7409362,18.2829375 17.8822734,18.4426126 17.957649,18.6252066 C17.957649,18.6252066 17.9800089,18.6888232 18.040197,18.6584511 C18.0568522,18.649834 18.1018557,18.5979391 17.9470453,18.2894734 M15.5490975,14.5078207 C15.67007,14.5548165 15.7411743,14.7486105 15.7615075,14.8423556 C15.8079443,15.0547656 15.7348419,15.1444888 15.6715062,15.1049462 C15.60586,15.0722636 15.517292,14.9085637 15.4499287,14.6952794 C15.4209526,14.6032829 15.4307136,14.46366 15.5490975,14.5078207" id="XMLID_382_" fill="#FFFFFF"></path>
                </g>
                <path d="M321,74.5 L321,81.5 C321,82.3285 320.3285,83 319.5,83 L312.5,83 C311.6715,83 311,82.3285 311,81.5 L311,74.5 C311,73.6715 311.6715,73 312.5,73 L314.5,73 L314.5,74 L312.5,74 C312.223875,74 312,74.223875 312,74.5 L312,81.5 C312,81.776125 312.223875,82 312.5,82 L319.5,82 C319.776125,82 320,81.776125 320,81.5 L320,74.5 C320,74.223875 319.776125,74 319.5,74 L317.5,74 L317.5,73 L319.5,73 C320.3285,73 321,73.6715 321,74.5 L321,74.5 Z M318.3535,76.6465 C318.15825,76.45125 317.841625,76.45125 317.6465,76.6465 L316.5,77.792875 L316.5,71.500125 L316.5,71.5 C316.5,71.223875 316.276125,71 316,71 C315.723875,71 315.5,71.223875 315.5,71.5 L315.5,77.792875 L314.3535,76.6465 C314.15825,76.45125 313.841625,76.45125 313.6465,76.6465 C313.45125,76.84175 313.45125,77.158375 313.6465,77.3535 L315.6465,79.3535 C315.74025,79.44725 315.867375,79.5 316,79.5 C316.132625,79.5 316.25975,79.44725 316.3535,79.3535 L318.3535,77.3535 C318.548875,77.158375 318.548875,76.841625 318.3535,76.6465 L318.3535,76.6465 Z" id="Shape" fill="#2A3246"></path>
                <g id="icon" transform="translate(609.000000, 68.000000)">
                    <g id="yad">
                        <g id="Group-3">
                            <mask id="mask-8" fill="white">
                                <use xlink:href="#path-7"></use>
                            </mask>
                            <g id="Clip-2"></g>
                            <path d="M0.000396226415,18.4990182 C0.000396226415,16.4182118 0.173283019,15.097805 4.44486792,11.8809958 C7.98132075,9.21793128 19.316566,0.117384292 19.316566,0.117384292 L19.316566,15.3091234 L27.9367358,15.3091234 L27.9367358,37.173913 L2.69288679,37.173913 C1.2120566,37.173913 0,35.9511711 0,34.4571529 L0.000396226415,18.4990182" id="Fill-1" fill="#FACA21" mask="url(#mask-8)"></path>
                        </g>
                        <polyline id="Fill-4" fill="#CAA521" points="19.316566 15.3091234 19.316566 24.1116129 3.47635849 34.9979734 23.5034906 28.4243198 23.5034906 15.3091234 19.316566 15.3091234"></polyline>
                        <path d="M12.0780377,14.8538429 C13.004283,13.7403576 14.3571321,13.3471669 15.0999245,13.9760589 C15.842717,14.6049509 15.6942642,16.0175596 14.7678868,17.1310449 C13.8421698,18.2443969 12.4889245,18.6370547 11.7461321,18.0081627 C11.0032075,17.3794039 11.1520566,15.967195 12.0780377,14.8538429" id="Fill-5" fill="#070606"></path>
                    </g>
                </g>
                <g id="icon" transform="translate(604.000000, 139.000000)" fill="#FE9F27">
                    <path d="M27.2998609,28.0654155 C27.2935335,28.0617518 27.2889879,28.0617518 27.2825514,28.0580881 C27.2725602,28.0580881 27.2625781,28.0508788 27.2589144,28.0508788 C27.2416048,28.0417785 27.2316136,28.0398967 27.2216224,28.0398967 C27.2107494,28.0398967 27.203422,28.0398967 27.2007582,28.0344601 C27.1816668,28.0272509 27.1643573,28.0253599 27.1434931,28.0172597 C26.9034502,27.9745313 26.6707349,28.0081594 26.467984,28.1372266 C26.0261902,28.4445167 25.957052,29.1254714 26.3189436,29.6728043 C26.491621,29.9191746 26.7188998,30.090961 26.9717066,30.1800725 C26.9717066,30.1800725 26.9734794,30.1800725 26.9871343,30.1918365 C26.9871343,30.1918365 27.0044439,30.198273 27.0107713,30.198273 C27.0225353,30.2000458 27.0326355,30.2000458 27.0443995,30.2054823 C27.0534997,30.2054823 27.0561634,30.2100279 27.0634909,30.2136916 C27.0843551,30.2173553 27.0998919,30.2273374 27.1216379,30.2273374 C27.358908,30.2672931 27.5970598,30.2345467 27.7943742,30.1091524 C28.2407226,29.8027442 28.3125246,29.1245713 27.9425237,28.5763475 C27.7780647,28.33265 27.5462312,28.1544179 27.2998609,28.0654155 M37.8883099,38.8037868 C36.8009715,36.5947 34.8718741,34.9682379 32.7763085,33.7273045 C32.0535254,33.2927201 31.2371852,32.985539 30.5180567,32.7563783 C28.8789398,32.2291277 27.2888788,32.1000697 25.435247,31.788225 C23.9297428,31.5290998 22.7433017,30.9118468 21.4660764,30.0454598 C20.7996675,29.5963386 20.2578802,28.9726582 19.8033225,28.3117949 C19.7215294,28.179955 19.2960543,27.6644684 19.335119,27.4853544 C19.335119,27.4853544 19.0451384,28.6681409 19.6287633,30.3300038 C14.2376361,30.0864155 9.5165998,27.1081443 7.35478699,23.4880012 C3.37007959,16.8405403 4.77104462,8.77668656 10.0830242,5.2139178 C15.3922309,1.65292183 23.4842944,4.16475316 27.8207931,10.5949265 C30.5381482,14.6286806 31.2363034,19.3260709 30.0671719,23.1425374 C30.0617354,23.1689472 30.0498623,23.1971389 30.0398711,23.2262124 C27.7388909,21.5589129 25.6361252,22.4097631 25.6361252,22.4097631 C27.9425419,22.174384 29.7653183,24.0052606 29.7653183,24.0052606 C30.0362074,24.238976 30.2916779,24.5062105 30.528948,24.7953001 C30.5798857,24.8707658 30.6325962,24.9407859 30.6844249,25.0162515 C31.2907958,25.8371373 31.6662331,26.7490346 31.8262556,27.6672502 C36.4108974,21.866203 37.163645,13.8314319 33.1144631,7.59213645 C27.9434237,-0.360732446 16.9394908,-2.38993259 8.52559127,3.05299593 C0.114500934,8.49947909 -2.5210701,19.3542626 2.64275089,27.3072496 C6.8901381,33.8483987 16.8394972,35.8420797 22.551542,34.0401675 C24.7061456,33.3647674 32.0963629,32.7156681 37.234665,38.7830589 C37.234665,38.7830589 37.6828953,39.2894453 37.9219381,39.8685155 C37.9219381,39.8685155 37.9928491,40.0702664 38.183727,39.9739456 C38.2365466,39.9466176 38.3792686,39.7820404 37.8883099,38.8037868 M30.2835686,26.8108272 C30.6672153,26.9598675 30.8927123,27.5744568 30.9571959,27.8717558 C31.1044635,28.545383 30.8726299,28.829927 30.67177,28.7045237 C30.4635826,28.6008754 30.1827023,28.0817251 29.9690692,27.405325 C29.8771758,27.1135717 29.9081312,26.6707779 30.2835686,26.8108272" id="XMLID_382_"></path>
                </g>
                <g id="icon" transform="translate(605.000000, 11.000000)" fill="#0068A3">
                    <g id="Group">
                        <path d="M17.9768892,0 C20.7995746,0 23.4728003,0.652619365 25.8536362,1.81127085 C26.2276484,1.98739164 26.6005722,2.18116053 26.9745844,2.39509866 L25.3196441,3.86565323 L22.8332431,1.31316237 L18.6367613,5.02934703 L16.1441934,2.3284681 L8.32694008,9.32431719 L13.338558,14.8078326 L11.3690992,16.5276214 L16.3052616,22.0194206 L14.3474114,23.7352477 L21.4010413,31.5303034 L25.5880912,27.7031878 L29.2081372,31.8043891 C28.4880459,32.360124 27.7037449,32.8830839 26.8396353,33.3664256 C24.2219129,34.8485055 21.1964411,35.6970547 17.9768892,35.6970547 C8.07554296,35.6970547 0,27.6783364 0,17.8490676 C0,8.0176378 8.07554296,0 17.9768892,0" id="Fill-1"></path>
                        <polyline id="Fill-2" points="14.8 17.046563 19.0748393 13.2244898 22.9241537 17.4697572 18.6496771 21.2903897 14.8 17.046563"></polyline>
                        <polyline id="Fill-3" points="17.76 24.3924213 22.0352021 20.5714286 25.8848792 24.8156154 21.6100399 28.6376887 17.76 24.3924213"></polyline>
                        <polyline id="Fill-4" points="11.84 9.69854376 16.1148393 5.87755102 19.9630654 10.1217379 15.688226 13.9427306 11.84 9.69854376"></polyline>
                        <polyline id="Fill-5" points="19.98 7.2736377 23.1861295 4.40816327 26.0726618 7.59130342 22.8665323 10.4578583 19.98 7.2736377"></polyline>
                        <polyline id="Fill-6" points="25.16 20.499208 28.3672178 17.6326531 31.2537501 20.8165135 28.0476206 23.6823481 25.16 20.499208"></polyline>
                        <polyline id="Fill-7" points="28.12 27.1118131 31.325404 24.244898 34.2126618 27.4280381 31.0065323 30.2938727 28.12 27.1118131"></polyline>
                        <polyline id="Fill-8" points="29.6 12.1963907 31.7374197 10.2857143 33.6615327 12.4078077 31.5252013 14.318124 29.6 12.1963907"></polyline>
                        <polyline id="Fill-9" points="26.64 6.31847955 28.7774197 4.40816327 30.7018954 6.5302567 28.564113 8.44057299 26.64 6.31847955"></polyline>
                        <polyline id="Fill-10" points="32.56 18.8086356 34.6974197 16.8979592 36.6218954 19.0196925 34.4844758 20.9303689 32.56 18.8086356"></polyline>
                        <polyline id="Fill-11" points="22.94 13.8873233 26.1457667 11.0204082 29.032299 14.2035483 25.8272578 17.0693829 22.94 13.8873233"></polyline>
                    </g>
                </g>
                <g id="icon" transform="translate(708.000000, 11.000000)">
                    <rect id="Rectangle-29" fill="#FC0D1B" opacity="0.8" x="0" y="0" width="24" height="24" rx="100"></rect>
                    <path d="M13.986322,6.66666667 L12.4622397,6.66666667 C10.9646521,6.66666667 9.69439184,7.802 9.69439184,10.0053733 C9.69439184,11.3273133 10.3101715,12.3020067 11.4055969,12.7833667 L9.36033736,16.46932 C9.29297807,16.5900067 9.36033736,16.6827 9.46648609,16.6827 L10.4156534,16.6827 C10.4959675,16.6827 10.5497052,16.6560067 10.5761999,16.58936 L12.4350851,12.9699733 L13.1039357,12.9699733 L13.1039357,16.58936 C13.1039357,16.62932 13.1440519,16.6827 13.1971228,16.6827 L14.0265199,16.6827 C14.1068339,16.6827 14.1333286,16.64266 14.1333286,16.5760133 L14.1333286,6.80005333 C14.1339137,6.70670667 14.080176,6.66666667 13.986322,6.66666667 L13.986322,6.66666667 L13.986322,6.66666667 Z M13.103854,12.1153133 L12.5425606,12.1153133 C11.6600858,12.1153133 10.8041124,11.4746867 10.8041124,9.87198667 C10.8041124,8.20198667 11.6062732,7.52132 12.4213819,7.52132 L13.103854,7.52132 L13.103854,12.1153133 L13.103854,12.1153133 L13.103854,12.1153133 Z" id="XMLID_329_" fill="#FFFFFF"></path>
                </g>
                <path d="M99.1662091,3.85618436 L94.9104691,8.11192429 C94.8097416,8.21265186 94.6838321,8.26301565 94.5579226,8.26301565 C94.4320132,8.26301565 94.3061037,8.21265186 94.2053761,8.11192429 L90.1510914,4.05763951 C89.9496362,3.85618436 89.9496362,3.55400165 90.1510914,3.3525465 C90.3525465,3.15109136 90.6547292,3.15109136 90.8561844,3.3525465 L94.5579226,7.05428478 L98.4611161,3.15109136 C98.6625712,2.94963621 98.9647539,2.94963621 99.1662091,3.15109136 C99.3676642,3.32736461 99.3676642,3.65472922 99.1662091,3.85618436 L99.1662091,3.85618436 Z" id="Down_Arrow-path" stroke="#2A3246" stroke-width="0.5" fill="#2A3246" transform="translate(94.658650, 5.631508) scale(1, -1) translate(-94.658650, -5.631508) "></path>
                <path d="M149.166209,3.85618436 L144.910469,8.11192429 C144.809742,8.21265186 144.683832,8.26301565 144.557923,8.26301565 C144.432013,8.26301565 144.306104,8.21265186 144.205376,8.11192429 L140.151091,4.05763951 C139.949636,3.85618436 139.949636,3.55400165 140.151091,3.3525465 C140.352547,3.15109136 140.654729,3.15109136 140.856184,3.3525465 L144.557923,7.05428478 L148.461116,3.15109136 C148.662571,2.94963621 148.964754,2.94963621 149.166209,3.15109136 C149.367664,3.32736461 149.367664,3.65472922 149.166209,3.85618436 L149.166209,3.85618436 Z" id="Down_Arrow-path-Copy-2" stroke="#2A3246" stroke-width="0.5" fill="#2A3246" transform="translate(144.658650, 5.631508) scale(-1, -1) rotate(-90.000000) translate(-144.658650, -5.631508) "></path>
                <path d="M99.1662091,23.8561844 L94.9104691,28.1119243 C94.8097416,28.2126519 94.6838321,28.2630156 94.5579226,28.2630156 C94.4320132,28.2630156 94.3061037,28.2126519 94.2053761,28.1119243 L90.1510914,24.0576395 C89.9496362,23.8561844 89.9496362,23.5540016 90.1510914,23.3525465 C90.3525465,23.1510914 90.6547292,23.1510914 90.8561844,23.3525465 L94.5579226,27.0542848 L98.4611161,23.1510914 C98.6625712,22.9496362 98.9647539,22.9496362 99.1662091,23.1510914 C99.3676642,23.3273646 99.3676642,23.6547292 99.1662091,23.8561844 L99.1662091,23.8561844 Z" id="Down_Arrow-path-Copy" stroke="#2A3246" stroke-width="0.5" fill="#2A3246"></path>
                <path d="M4,23 C4,21.8954305 4.8926228,21 5.99508929,21 L20.0049107,21 C21.1067681,21 22,21.8877296 22,23 C22,24.1045695 21.1073772,25 20.0049107,25 L5.99508929,25 C4.8932319,25 4,24.1122704 4,23 Z M30,23 C30,21.8954305 30.8877296,21 32,21 C33.1045695,21 34,21.8877296 34,23 C34,24.1045695 33.1122704,25 32,25 C30.8954305,25 30,24.1122704 30,23 Z M0,9 L38,9 L38,13 L0,13 L0,9 Z" id="Combined-Shape" fill="#FFFFFF"></path>
            </g>
            <g id="credit-card-copy" transform="translate(167.000000, 88.000000)">
                <rect id="Rectangle-39" fill="#FFAA00" x="0" y="0" width="38" height="26" rx="4"></rect>
                <path d="M4,20 C4,18.8954305 4.8926228,18 5.99508929,18 L20.0049107,18 C21.1067681,18 22,18.8877296 22,20 C22,21.1045695 21.1073772,22 20.0049107,22 L5.99508929,22 C4.8932319,22 4,21.1122704 4,20 Z M30,20 C30,18.8954305 30.8877296,18 32,18 C33.1045695,18 34,18.8877296 34,20 C34,21.1045695 33.1122704,22 32,22 C30.8954305,22 30,21.1122704 30,20 Z M0,6 L38,6 L38,10 L0,10 L0,6 Z" id="Combined-Shape" fill="#FFFFFF"></path>
                <path d="M96.6647442,13.8139535 C96.6647442,11.5674419 98.1230233,9.65823256 100.162791,8.92730233 C99.5907442,8.72218605 98.9753953,8.60465116 98.3304186,8.60465116 C95.3865116,8.60465116 93,10.9371163 93,13.8139535 C93,16.6911163 95.3865116,19.0232558 98.3304186,19.0232558 C98.9753953,19.0232558 99.5907442,18.9057209 100.162791,18.7006047 C98.1230233,17.9696744 96.6647442,16.0607907 96.6647442,13.8139535" id="moon" fill="#2A3246"></path>
                <g id="Group" transform="translate(169.093023, 6.000000)" fill="#2A3246">
                    <path d="M7.48837209,3.74418605 C5.42382791,3.74418605 3.74418605,5.42382791 3.74418605,7.48837209 C3.74418605,9.55291628 5.42382791,11.2325581 7.48837209,11.2325581 C9.55291628,11.2325581 11.2325581,9.55291628 11.2325581,7.48837209 C11.2325581,5.42382791 9.55291628,3.74418605 7.48837209,3.74418605 L7.48837209,3.74418605 Z M7.48837209,9.73488372 C6.24979535,9.73488372 5.24186047,8.72694884 5.24186047,7.48837209 C5.24186047,6.24979535 6.24979535,5.24186047 7.48837209,5.24186047 C8.72694884,5.24186047 9.73488372,6.24979535 9.73488372,7.48837209 C9.73488372,8.72694884 8.72694884,9.73488372 7.48837209,9.73488372 L7.48837209,9.73488372 Z" id="Shape"></path>
                    <rect id="Rectangle-path" x="6.73953488" y="0" width="1.49767442" height="2.24651163"></rect>
                    <rect id="Rectangle-path" transform="translate(11.989370, 2.987791) rotate(45.000000) translate(-11.989370, -2.987791) " x="11.2405398" y="1.86379703" width="1.49766006" height="2.24798774"></rect>
                    <rect id="Rectangle-path" x="12.7302326" y="6.73953488" width="2.24651163" height="1.49767442"></rect>
                    <rect id="Rectangle-path" transform="translate(11.988166, 11.989631) rotate(224.983794) translate(-11.988166, -11.989631) " x="10.8641725" y="11.241175" width="2.24798783" height="1.49691129"></rect>
                    <rect id="Rectangle-path" x="6.73953488" y="12.7302326" width="1.49767442" height="2.24651163"></rect>
                    <rect id="Rectangle-path" transform="translate(2.988381, 11.989511) rotate(224.991897) translate(-2.988381, -11.989511) " x="2.23992559" y="10.8662657" width="1.49691124" height="2.24649011"></rect>
                    <rect id="Rectangle-path" x="0" y="6.73953488" width="2.24651163" height="1.49767442"></rect>
                    <rect id="Rectangle-path" transform="translate(2.987414, 2.987604) rotate(45.016206) translate(-2.987414, -2.987604) " x="1.86416907" y="2.2387743" width="2.24649017" height="1.49766012"></rect>
                </g>
                <path d="M96.6647442,53.8139535 C96.6647442,51.5674419 98.1230233,49.6582326 100.162791,48.9273023 C99.5907442,48.722186 98.9753953,48.6046512 98.3304186,48.6046512 C95.3865116,48.6046512 93,50.9371163 93,53.8139535 C93,56.6911163 95.3865116,59.0232558 98.3304186,59.0232558 C98.9753953,59.0232558 99.5907442,58.9057209 100.162791,58.7006047 C98.1230233,57.9696744 96.6647442,56.0607907 96.6647442,53.8139535" id="moon-copy" fill="#FFFFFF"></path>
                <g id="Group-Copy" transform="translate(169.093023, 46.000000)" fill="#FFFFFF">
                    <path d="M7.48837209,3.74418605 C5.42382791,3.74418605 3.74418605,5.42382791 3.74418605,7.48837209 C3.74418605,9.55291628 5.42382791,11.2325581 7.48837209,11.2325581 C9.55291628,11.2325581 11.2325581,9.55291628 11.2325581,7.48837209 C11.2325581,5.42382791 9.55291628,3.74418605 7.48837209,3.74418605 L7.48837209,3.74418605 Z M7.48837209,9.73488372 C6.24979535,9.73488372 5.24186047,8.72694884 5.24186047,7.48837209 C5.24186047,6.24979535 6.24979535,5.24186047 7.48837209,5.24186047 C8.72694884,5.24186047 9.73488372,6.24979535 9.73488372,7.48837209 C9.73488372,8.72694884 8.72694884,9.73488372 7.48837209,9.73488372 L7.48837209,9.73488372 Z" id="Shape"></path>
                    <rect id="Rectangle-path" x="6.73953488" y="0" width="1.49767442" height="2.24651163"></rect>
                    <rect id="Rectangle-path" transform="translate(11.989370, 2.987791) rotate(45.000000) translate(-11.989370, -2.987791) " x="11.2405398" y="1.86379703" width="1.49766006" height="2.24798774"></rect>
                    <rect id="Rectangle-path" x="12.7302326" y="6.73953488" width="2.24651163" height="1.49767442"></rect>
                    <rect id="Rectangle-path" transform="translate(11.988166, 11.989631) rotate(224.983794) translate(-11.988166, -11.989631) " x="10.8641725" y="11.241175" width="2.24798783" height="1.49691129"></rect>
                    <rect id="Rectangle-path" x="6.73953488" y="12.7302326" width="1.49767442" height="2.24651163"></rect>
                    <rect id="Rectangle-path" transform="translate(2.988381, 11.989511) rotate(224.991897) translate(-2.988381, -11.989511) " x="2.23992559" y="10.8662657" width="1.49691124" height="2.24649011"></rect>
                    <rect id="Rectangle-path" x="0" y="6.73953488" width="2.24651163" height="1.49767442"></rect>
                    <rect id="Rectangle-path" transform="translate(2.987414, 2.987604) rotate(45.016206) translate(-2.987414, -2.987604) " x="1.86416907" y="2.2387743" width="2.24649017" height="1.49766012"></rect>
                </g>
            </g>
            <g id="credit-card-copy-2" transform="translate(37.000000, 138.000000)">
                <rect id="Rectangle-39" fill="#BCC0C4" x="130" y="0" width="38" height="26" rx="4"></rect>
                <g id="!" transform="translate(0.000000, 60.000000)">
                    <rect id="Rectangle-114" fill="#FF0142" x="0" y="0" width="26" height="26" rx="100"></rect>
                    <text font-family="AvenirNext-DemiBold, Avenir Next" font-size="14" font-weight="500" fill="#FFFFFF">
                        <tspan x="11.12" y="18">!</tspan>
                    </text>
                </g>
                <polygon id="Triangle-1-Copy" fill-opacity="0.800000012" fill="#2A3246" transform="translate(94.000000, 73.000000) scale(1, -1) translate(-94.000000, -73.000000) " points="94 71 98 75 90 75"></polygon>
                <polygon id="Triangle-1-Copy-2" fill-opacity="0.800000012" fill="#2A3246" points="94 101 98 105 90 105"></polygon>
                <path d="M134,20 C134,18.8954305 134.892623,18 135.995089,18 L150.004911,18 C151.106768,18 152,18.8877296 152,20 C152,21.1045695 151.107377,22 150.004911,22 L135.995089,22 C134.893232,22 134,21.1122704 134,20 Z M160,20 C160,18.8954305 160.88773,18 162,18 C163.104569,18 164,18.8877296 164,20 C164,21.1045695 163.11227,22 162,22 C160.895431,22 160,21.1122704 160,20 Z M130,6 L168,6 L168,10 L130,10 L130,6 Z" id="Combined-Shape" fill="#FFFFFF"></path>
            </g>
            <path d="M243.201,216.1805 C242.933,215.9105 242.933,215.4735 243.201,215.2025 C243.469,214.9325 243.902,214.9325 244.17,215.2025 L248,219.1105 C248.268,219.3815 248.268,219.8195 248,220.0895 L244.17,223.9975 C243.903,224.2695 243.469,224.2675 243.201,223.9975 C242.933,223.7285 242.933,223.2905 243.201,223.0195 L246.342,219.6005 L243.201,216.1805 Z" id="Shape" fill-opacity="0.400000006" fill="#96A0AA"></path>
        </g>
    </g>
</svg>