<?xml version="1.0" encoding="UTF-8" standalone="no"?>
<svg width="155px" height="151px" viewBox="0 0 155 151" version="1.1" xmlns="http://www.w3.org/2000/svg" xmlns:xlink="http://www.w3.org/1999/xlink">
    <!-- Generator: Sketch 3.6.1 (26313) - http://www.bohemiancoding.com/sketch -->
    <title>logo</title>
    <desc>Created with Sketch.</desc>
    <defs></defs>
    <g id="Desktop" stroke="none" stroke-width="1" fill="none" fill-rule="evenodd" opacity="0.460529384">
        <g id="2–Course_user" transform="translate(-474.000000, -897.000000)" fill="#FFFFFF">
            <g id="why-study-online" transform="translate(251.000000, 803.000000)">
                <g id="Group-5" transform="translate(223.000000, 94.000000)">
                    <g id="logo">
                        <path d="M132.302399,22.1138874 C102.036211,-7.37129579 52.9658285,-7.37129579 22.6996408,22.1138874 C-7.56654693,51.5990705 -7.56654693,99.4009295 22.6996408,128.886113 C52.9658285,158.371296 102.036211,158.371296 132.302399,128.886113 C162.565867,99.4009295 162.565867,51.5990705 132.302399,22.1138874 L132.302399,22.1138874 Z M27.6868994,21.5503388 C27.64339,21.5907849 27.5971614,21.6285346 27.553652,21.6689806 C27.5971614,21.6285346 27.64339,21.5907849 27.6868994,21.5503388 L27.6868994,21.5503388 Z M26.5991658,22.5291337 C26.3761804,22.7340604 26.153195,22.9362907 25.9329289,23.1439139 C26.153195,22.9362907 26.3761804,22.7340604 26.5991658,22.5291337 L26.5991658,22.5291337 Z M24.8315987,126.809881 C-4.25711742,98.4733663 -4.25711742,52.5293301 24.8315987,24.1928152 C25.1823928,23.8530683 25.5359062,23.5187141 25.8894196,23.1870564 C62.885959,-11.1139052 114.216108,40.249904 77.7525581,75.9556924 C45.1885332,107.840676 81.195235,153.339805 116.723334,137.201824 C87.9935701,154.566669 49.770611,151.104486 24.8315987,126.809881 L24.8315987,126.809881 Z" id="Shape"></path>
                        <path d="M51.7392547,82.5019733 C66.4600669,63.9801455 65.2971147,43.2754933 46.0543112,30.2 C55.5905199,50.4005109 34.8088331,40.2184666 22.8764017,73.5373765 C13.9676463,110.516674 51.1307331,139.384123 77.5,142.371429 C49.7054404,139.008699 37.0184424,101.021119 51.7392547,82.5019733 L51.7392547,82.5019733 Z M33.9812438,107.95038 C26.7898714,94.3332031 36.185444,81.9281104 36.185444,81.9281104 C36.185444,81.9281104 33.4159949,96.229096 38.4112806,108.041555 C43.4065663,119.856695 48.7128742,126.061923 48.7128742,126.061923 C48.7128742,126.061923 41.1699116,121.567557 33.9812438,107.95038 L33.9812438,107.95038 Z" id="Shape"></path>
                    </g>
                </g>
            </g>
        </g>
    </g>
</svg>