<?xml version="1.0" encoding="UTF-8" standalone="no"?>
<svg width="220px" height="171px" viewBox="0 0 220 171" version="1.1" xmlns="http://www.w3.org/2000/svg" xmlns:xlink="http://www.w3.org/1999/xlink">
    <!-- Generator: Sketch 3.6.1 (26313) - http://www.bohemiancoding.com/sketch -->
    <title>Combined Shape</title>
    <desc>Created with Sketch.</desc>
    <defs>
        <rect id="path-1" x="0" y="0" width="220" height="171" rx="4"></rect>
    </defs>
    <g id="Assets" stroke="none" stroke-width="1" fill="none" fill-rule="evenodd">
        <g id="CALC" transform="translate(-510.000000, -96.000000)">
            <g id="калькулятор">
                <g id="Group-8">
                    <g id="Combined-Shape" transform="translate(510.000000, 96.000000)">
                        <mask id="mask-2" fill="white">
                            <use xlink:href="#path-1"></use>
                        </mask>
                        <use id="Mask" stroke="#96A0AA" fill="#D8DCE7" opacity="0.125932836" xlink:href="#path-1"></use>
                        <path d="M110.162218,59.34644 C90.4406673,74.1396828 41.6419542,100.098015 17.6770376,94.8562362 C12.2819004,93.0120921 9.59443502,89.7146823 9.59443502,84.9640068 C9.59443502,79.0807862 13.2215029,73.0171603 20.485742,66.7831515 C25.992015,62.0424985 35.4183502,55.6681743 48.7647477,47.6702016 C54.8570094,43.9819134 60.0096686,40.5943009 64.2328284,37.5274091 C68.445885,34.4504948 71.8405781,31.6341661 74.4169077,29.0884454 C82.8531241,20.8298871 85.6719317,15.1671621 85.6719317,7.87076589 C85.6719317,-23.1088503 12.2111776,1.81716247 -4.37836417,13.2328153 L-4.3076414,-1.02923384 C16.6364025,-11.5127921 59.6863645,-20.6433098 81.1052613,-7.45367057 C94.6133108,0.564347197 91.1276885,22.2330402 83.5199388,32.7366435 C68.5873306,53.3529717 38.9847986,64.4679488 25.2645808,77.6776331 C17.0203261,85.6154707 19.8593403,92.280448 41.6621607,87.098804 C83.287564,76.4548854 124.448218,48.311643 165.780626,-7.5538958 C166.477751,-7.90468407 168.589331,-8.51605793 172.09516,-9.39803988 C174.095604,-9.83903086 175.843467,-10.2098642 177.369058,-10.5205624 C178.894649,-10.821238 180.238382,-11.0617786 181.410359,-11.242184 C183.633075,-11.5027695 184.865672,-11.4125668 185.098047,-10.9815984 C185.451661,-10.2699993 177.601433,-1.40006716 161.557467,15.6482431 C152.302887,25.4001572 145.311435,32.7566885 140.562906,37.717837 C135.824481,42.6890081 133.33908,45.2948638 133.096602,45.5654719 C131.66194,47.2292106 130.217175,48.9029718 128.762307,50.5667105 C131.247707,49.444188 133.783624,48.4118682 136.38016,47.4497061 C142.674486,45.1044359 148.675819,43.4206522 154.404363,42.3682874 C158.334529,41.6065757 162.880993,41.3159225 168.033652,41.5063504 C177.328645,41.8571387 184.087721,43.6311252 190.765972,50.3963276 C195.009338,54.6859672 196.797614,59.9878814 195.959044,68.0760568 C200.747986,59.4165976 203.869891,54.2048861 206.456324,44.0821387 C197.050195,43.5108549 189.513168,41.8170486 183.86545,39.0107424 C178.207628,36.1944137 174.297669,33.0673867 172.135573,29.6396841 C169.973477,26.201959 169.48852,22.8845042 170.700911,19.6873196 C171.913301,16.5001575 174.61087,14.1849549 178.813823,12.7517342 C180.713235,12.0902477 182.784402,11.7995946 185.007117,11.8998198 C187.229833,11.9900225 189.391929,12.3207658 191.493406,12.8920495 C193.584779,13.4633333 195.524604,14.1849549 197.31288,15.0468918 C199.080949,15.8988062 200.545921,16.8108557 201.697692,17.7629953 C205.001455,20.4289862 207.446443,23.8466663 209.032654,27.985968 C210.628968,32.1352922 211.285679,36.6454272 211.033098,41.5063504 C214.89254,41.4161477 219.186423,40.9751568 223.914745,40.2134451 L223.914745,43.6912603 C219.186423,44.1422738 214.761198,44.3226792 210.659277,44.222454 C209.396371,52.4409222 207.3151,57.3218905 203.789065,64.2574759 C210.022772,59.0156967 216.731332,54.9766203 223.914745,52.1703141 L223.914745,58.8453139 C205.547031,61.7618678 196.231832,76.9259439 186.856013,91.5087138 C182.036761,99.0055604 177.116477,109.128308 179.14723,116.995988 C184.249373,136.800492 211.113924,134.555447 223.985468,120.704321 L223.985468,129.884951 C208.325426,137.682474 171.66072,144.738329 174.045088,109.17842 C173.145898,110.13056 172.327535,111.0827 171.559687,112.034839 C170.801943,112.997001 169.973477,113.999254 169.08439,115.041596 C145.533707,143.876392 99.6346277,180.137878 60.9593744,185.389679 C49.9064154,186.893058 39.439445,185.800603 32.1651027,180.06772 C12.8880956,164.883599 30.6900277,129.904996 50.3610618,126.888217 C52.9070816,126.607587 55.160107,126.868172 57.1302414,127.679996 C59.1003758,128.491821 60.2723532,129.564231 60.6562768,130.897226 C61.424124,132.901731 61.1311297,134.866145 59.7975003,136.760402 C58.4739741,138.664681 57.0595186,140.248239 54.8974224,140.819523 C50.209513,142.493284 46.339967,139.53664 45.1679896,135.527631 C44.2688001,132.450717 40.7326614,135.327181 37.5501367,139.486528 C29.2957788,150.250716 29.0836105,164.602968 41.5813347,172.340355 C50.7853984,178.053193 65.5462513,177.692382 83.7826234,171.588666 C123.27624,158.378982 170.044199,108.81761 168.801499,108.466821 C159.738881,114.78101 145.705462,124.031798 128.944165,125.024028 C109.596435,126.176618 87.5107238,118.138555 89.5313745,93.6936236 C89.5616842,93.3127678 89.6223037,92.9118669 89.6930265,92.4708759 C91.1276885,83.6811239 98.1999657,71.2832639 110.162218,59.34644 Z M179.824148,90.7169345 C184.67371,83.721214 192.968481,72.1852909 192.160221,64.1873182 C191.776297,60.4188499 190.755868,57.3419355 189.109038,54.9565753 C187.452105,52.571215 185.330421,50.787206 182.713679,49.5945259 C180.117143,48.4018457 177.439781,47.5699764 174.711902,47.0888953 C171.973921,46.6178368 169.367281,46.4173863 166.891984,46.5176115 C164.406584,46.6178368 162.537482,46.7581521 161.264472,46.94858 C152.868669,48.4720034 145.341745,50.9074763 138.663495,54.2449762 C131.995348,57.5824761 126.206184,61.3910345 121.316209,65.6906965 C116.416131,69.9803361 112.445553,74.5305611 109.39437,79.3513943 C97.1088144,98.7449748 103.292005,113.327745 118.992461,116.795537 C140.340635,121.516145 167.114256,106.943398 179.824148,90.7169345 Z M191.968259,18.7652475 C189.301,18.4745944 187.108594,18.8153601 185.391041,19.7674998 C183.673488,20.7196394 182.501511,22.0125447 181.854902,23.6261708 C181.228501,25.2498194 181.157778,27.0338284 181.673044,28.9982427 C182.178206,30.9526345 183.451216,32.8368687 185.48197,34.6409227 C187.522827,36.4549992 190.281016,38.0084902 193.776741,39.291373 C197.272467,40.5842784 201.626969,41.3159225 206.840248,41.5063504 C207.224171,38.6499316 207.385823,35.913783 206.931177,33.3580399 C205.395482,24.628423 199.980139,20.0180628 191.968259,18.7652475 Z M-4.3076414,58.0134445 C0.461094117,57.5323635 5.68447603,56.5000437 11.3524011,54.9164852 C14.85823,53.954323 18.0205482,52.8819132 20.8292526,51.689233 C23.637957,50.5065754 26.1637703,49.2938502 28.386486,48.0711025 C37.085387,43.0297738 42.7331056,37.4171614 46.6935808,31.0829273 C48.3303079,28.467049 49.6841438,25.720878 50.8561212,22.8444141 C51.8260335,18.3643466 59.5348157,17.7730178 56.4634267,25.0894591 C55.8572315,26.5026347 54.8873192,28.2565761 53.5031735,30.4214409 C50.6742626,34.8814633 47.1179175,38.9405848 43.0564097,42.1377693 C39.6010971,44.8538729 35.529486,47.5900214 30.8516798,50.3061249 C25.8101564,53.1224537 19.7178947,55.5779716 12.5748947,57.6927238 C6.56345906,59.3163724 0.935947018,60.3687372 -4.3076414,60.8297733 L-4.3076414,58.0134445 Z" fill="#2A3246" opacity="0.0486940299" mask="url(#mask-2)"></path>
                    </g>
                </g>
            </g>
        </g>
    </g>
</svg>