<?xml version="1.0" encoding="UTF-8" standalone="no"?>
<svg width="279px" height="227px" viewBox="0 0 279 227" version="1.1" xmlns="http://www.w3.org/2000/svg" xmlns:xlink="http://www.w3.org/1999/xlink">
    <!-- Generator: Sketch 3.6.1 (26313) - http://www.bohemiancoding.com/sketch -->
    <title>”</title>
    <desc>Created with Sketch.</desc>
    <defs></defs>
    <g id="Assets" stroke="none" stroke-width="1" fill="none" fill-rule="evenodd" fill-opacity="0.200000003">
        <g id="Artboard" transform="translate(-57.000000, -243.000000)" fill="#96A0AA">
            <path d="M336,319 C336,270 306,243 273,243 C244,243 220,268 220,297 C220,327 241,348 269,348 C273,348 280,347 282,346 C278,378 250,418 218,439 L255,470 C300,437 336,380 336,319 L336,319 Z M176,319 C176,270 146,243 113,243 C83,243 60,268 60,297 C60,327 80,348 108,348 C113,348 120,347 122,346 C118,378 89,418 57,439 L94,470 C140,437 176,380 176,319 L176,319 Z" id="”"></path>
        </g>
    </g>
</svg>