<?xml version="1.0" encoding="UTF-8" standalone="no"?>
<svg width="1000px" height="1000px" viewBox="0 0 1000 1000" version="1.1" xmlns="http://www.w3.org/2000/svg" xmlns:xlink="http://www.w3.org/1999/xlink">
    <!-- Generator: Sketch 3.6.1 (26313) - http://www.bohemiancoding.com/sketch -->
    <title>sprite</title>
    <desc>Created with Sketch.</desc>
    <defs>
        <filter x="-50%" y="-50%" width="200%" height="200%" filterUnits="objectBoundingBox" id="filter-1">
            <feMorphology radius="1" in="SourceAlpha" operator="dilate" result="shadowSpreadInner1"></feMorphology>
            <feOffset dx="0" dy="0" in="shadowSpreadInner1" result="shadowOffsetInner1"></feOffset>
            <feGaussianBlur stdDeviation="0" in="shadowOffsetInner1" result="shadowBlurInner1"></feGaussianBlur>
            <feComposite in="shadowBlurInner1" in2="SourceAlpha" operator="arithmetic" k2="-1" k3="1" result="shadowInnerInner1"></feComposite>
            <feColorMatrix values="0 0 0 0 0   0 0 0 0 0   0 0 0 0 0  0 0 0 0.07 0" in="shadowInnerInner1" type="matrix" result="shadowMatrixInner1"></feColorMatrix>
            <feMerge>
                <feMergeNode in="SourceGraphic"></feMergeNode>
                <feMergeNode in="shadowMatrixInner1"></feMergeNode>
            </feMerge>
        </filter>
        <filter x="-50%" y="-50%" width="200%" height="200%" filterUnits="objectBoundingBox" id="filter-2">
            <feOffset dx="0" dy="1" in="SourceAlpha" result="shadowOffsetOuter1"></feOffset>
            <feGaussianBlur stdDeviation="0.5" in="shadowOffsetOuter1" result="shadowBlurOuter1"></feGaussianBlur>
            <feColorMatrix values="0 0 0 0 0   0 0 0 0 0   0 0 0 0 0  0 0 0 0.14 0" in="shadowBlurOuter1" type="matrix" result="shadowMatrixOuter1"></feColorMatrix>
            <feMerge>
                <feMergeNode in="shadowMatrixOuter1"></feMergeNode>
                <feMergeNode in="SourceGraphic"></feMergeNode>
            </feMerge>
        </filter>
        <filter x="-50%" y="-50%" width="200%" height="200%" filterUnits="objectBoundingBox" id="filter-3">
            <feMorphology radius="1" in="SourceAlpha" operator="dilate" result="shadowSpreadInner1"></feMorphology>
            <feOffset dx="0" dy="0" in="shadowSpreadInner1" result="shadowOffsetInner1"></feOffset>
            <feGaussianBlur stdDeviation="0" in="shadowOffsetInner1" result="shadowBlurInner1"></feGaussianBlur>
            <feComposite in="shadowBlurInner1" in2="SourceAlpha" operator="arithmetic" k2="-1" k3="1" result="shadowInnerInner1"></feComposite>
            <feColorMatrix values="0 0 0 0 0   0 0 0 0 0   0 0 0 0 0  0 0 0 0.07 0" in="shadowInnerInner1" type="matrix" result="shadowMatrixInner1"></feColorMatrix>
            <feMerge>
                <feMergeNode in="SourceGraphic"></feMergeNode>
                <feMergeNode in="shadowMatrixInner1"></feMergeNode>
            </feMerge>
        </filter>
        <path id="path-4" d="M0,0.3834 L69.9472034,0.3834 L69.9472034,45 L0,45 L0,0.3834 Z"></path>
        <path id="path-6" d="M0,0.3834 L69.9472034,0.3834 L69.9472034,45 L0,45"></path>
    </defs>
    <g id="Desktop" stroke="none" stroke-width="1" fill="none" fill-rule="evenodd">
        <g id="sprite">
            <g id="gubkin_logo_outlines" transform="translate(30.000000, 20.000000)" fill="#369BF8">
                <path d="M44.3853209,7.40384014 C34.231503,-2.46794671 17.7691812,-2.46794671 7.61536336,7.40384014 C-2.53845445,17.275627 -2.53845445,33.2799286 7.61536336,43.1517154 C17.7691812,53.0235023 34.231503,53.0235023 44.3853209,43.1517154 C54.5382264,33.2799286 54.5382264,17.275627 44.3853209,7.40384014 L44.3853209,7.40384014 Z M9.28850818,7.21516127 C9.2739115,7.22870282 9.25840252,7.2413416 9.24380584,7.25488314 C9.25840252,7.2413416 9.2739115,7.22870282 9.28850818,7.21516127 L9.28850818,7.21516127 Z M8.9235911,7.54286668 C8.8487831,7.61147718 8.7739751,7.67918491 8.70007939,7.74869818 C8.7739751,7.67918491 8.8487831,7.61147718 8.9235911,7.54286668 L8.9235911,7.54286668 Z M8.33060084,42.4565827 C-1.42819423,32.9693758 -1.42819423,17.5870826 8.33060084,8.0998756 C8.4482866,7.98612661 8.56688465,7.87418317 8.6854827,7.76314249 C21.097225,-3.72099108 38.3176621,13.4758693 26.0847292,25.4303459 C15.160024,36.1055978 27.2396918,51.338934 39.1587959,45.9358572 C29.5204235,51.7496942 16.6972372,50.5905379 8.33060084,42.4565827 L8.33060084,42.4565827 Z" id="Shape"></path>
                <path d="M17.7187965,27.2609624 C22.6573916,21.0597617 22.2672399,14.1277406 15.8115897,9.75 C19.0108339,16.5132321 12.0389132,13.1042327 8.03577492,24.2595705 C5.04703117,36.6404242 17.5146474,46.3053909 26.3611111,47.3055556 C17.0364847,46.1796969 12.7802015,33.4612652 17.7187965,27.2609624 L17.7187965,27.2609624 Z M11.7612703,35.7812163 C9.34868087,31.2221173 12.5007439,27.0688302 12.5007439,27.0688302 C12.5007439,27.0688302 11.5716384,31.8568717 13.2474762,35.811742 C14.923314,39.76751 16.7034947,41.8450514 16.7034947,41.8450514 C16.7034947,41.8450514 14.1729524,40.3403153 11.7612703,35.7812163 L11.7612703,35.7812163 Z" id="Shape"></path>
            </g>
            <g id="1" transform="translate(30.000000, 131.000000)">
                <rect id="Rectangle-342" stroke="#E2E2E4" stroke-width="2" fill="#FFFFFF" x="0" y="0" width="120" height="120" rx="100"></rect>
                <rect id="Rectangle-31" stroke="#979797" fill="#D8D8D8" x="55" y="37" width="28" height="28" rx="100"></rect>
                <g id="icon" transform="translate(33.000000, 36.000000)">
                    <path d="M-0.281490023,35.2773095 C-0.454606981,34.2347224 2.51646997,31.8203895 2.51646997,31.8203895 C2.51646997,31.8203895 3.2638545,30.0994149 4.27743099,30.1230498 C14.0124432,30.3500531 31.7215066,29.8277088 31.7215066,29.8277088 C31.7215066,29.8277088 30.5478825,33.8775505 30.4659603,35.8595906 C30.3888789,37.7245129 31.2444959,41.368596 31.2444959,41.368596 C31.2444959,41.368596 25.6044237,41.6168941 20.1706322,40.4310871 C18.4549031,40.0566664 17.7740674,37.5580338 15.9879273,37.4220481 C14.6795616,37.3224373 12.9270997,40.5674663 11.7202605,40.4310871 C10.55791,40.2997353 9.48421657,37.7515282 8.5054043,37.6970177 C6.89213794,37.6071742 4.27743084,39.9151473 4.27743084,39.9151473 C4.27743084,39.9151473 0.196966359,38.1587858 -0.281490023,35.2773095 Z" id="Rectangle-25" fill="#F2F2F6" transform="translate(15.716367, 35.608969) rotate(-46.000000) translate(-15.716367, -35.608969) "></path>
                    <rect id="Rectangle-24" fill="#F2F2F6" x="36" y="7" width="9" height="9" rx="100"></rect>
                    <path d="M30.6131623,29.2757266 L22.5555556,37.3333333 L17.2222222,37.3333333 L17.2222222,42.6666667 L11.8888889,42.6666667 L11.8888889,48 L3,48 L3,39.1111111 L21.7242734,20.3868377 C21.1122784,18.7443932 20.7777778,16.9668156 20.7777778,15.1111111 C20.7777778,6.76547447 27.5432523,0 35.8888889,0 C44.2345255,0 51,6.76547447 51,15.1111111 C51,23.4567477 44.2345255,30.2222222 35.8888889,30.2222222 C34.0331844,30.2222222 32.2556068,29.8877216 30.6131623,29.2757266 L30.6131623,29.2757266 L30.6131623,29.2757266 L30.6131623,29.2757266 Z M22.5533556,22.2244222 L4.77777778,40 L4.77777778,46.2222222 L10.1111111,46.2222222 L10.1111111,40.8888889 L15.4444444,40.8888889 L15.4444444,35.5555556 L21.6666667,35.5555556 L28.7755778,28.4466444 C26.1359924,27.035718 23.964282,24.8640076 22.5533556,22.2244222 L22.5533556,22.2244222 L22.5533556,22.2244222 L22.5533556,22.2244222 Z M49.2222222,15.1111111 C49.2222222,7.74731408 43.2526859,1.77777778 35.8888889,1.77777778 C28.5250919,1.77777778 22.5555556,7.74731408 22.5555556,15.1111111 C22.5555556,22.4749081 28.5250919,28.4444444 35.8888889,28.4444444 C43.2526859,28.4444444 49.2222222,22.4749081 49.2222222,15.1111111 L49.2222222,15.1111111 L49.2222222,15.1111111 L49.2222222,15.1111111 Z M45.6666667,10.6666667 C45.6666667,7.72114786 43.2788521,5.33333333 40.3333333,5.33333333 C37.3878146,5.33333333 35,7.72114786 35,10.6666667 C35,13.6121854 37.3878146,16 40.3333333,16 C43.2788521,16 45.6666667,13.6121854 45.6666667,10.6666667 L45.6666667,10.6666667 L45.6666667,10.6666667 L45.6666667,10.6666667 Z M43.8888889,10.6666667 C43.8888889,8.70298747 42.2970126,7.11111111 40.3333333,7.11111111 C38.369654,7.11111111 36.7777778,8.70298747 36.7777778,10.6666667 C36.7777778,12.630346 38.369654,14.2222222 40.3333333,14.2222222 C42.2970126,14.2222222 43.8888889,12.630346 43.8888889,10.6666667 L43.8888889,10.6666667 L43.8888889,10.6666667 L43.8888889,10.6666667 Z" id="key" fill="#3B3D4D"></path>
                </g>
            </g>
            <g id="2" transform="translate(219.000000, 131.000000)">
                <rect id="Rectangle-342" stroke="#E2E2E4" stroke-width="2" fill="#FFFFFF" x="0" y="0" width="120" height="120" rx="100"></rect>
                <rect id="Rectangle-32" fill="#D8D8D8" x="37" y="56" width="46" height="22"></rect>
                <g id="icon" transform="translate(36.000000, 42.000000)">
                    <path d="M1,1 C1,1 6.56621069,1.05405995 12.3310547,1.00000001 C15.5303111,0.969998927 18.8406304,0.340066059 21.1757812,1 C22.2995129,1.31757634 24,7.5 24,7.5 C24,7.5 47,5.83203125 47,8.24804687 L47,14 L1,14 L1,1 Z" id="Rectangle-26" fill="#F2F2F6"></path>
                    <path d="M24.8275862,14.8965517 L46.3448276,14.8965517 L46.3448276,33.1020055 C46.3448276,34.0226799 45.6089945,34.7586207 44.7012986,34.7586207 L3.29870142,34.7586207 C2.3935591,34.7586207 1.65517241,34.023649 1.65517241,33.1170156 L1.65517241,14.8965517 L23.1724138,14.8965517 L23.1724138,29.8758604 L17.7931034,24.4965501 L16.5517241,25.7379294 L24,33.1862052 L31.4482759,25.7379294 L30.2068966,24.4965501 L24.8275862,29.8758604 L24.8275862,14.8965517 L24.8275862,14.8965517 L24.8275862,14.8965517 Z M1.65517241,13.2413793 L1.65517241,3.29677756 C1.65517241,2.40878165 2.39009348,1.65517241 3.29666455,1.65517241 L20.5241783,1.65517241 L23.7682517,8.27586207 L44.6847181,8.27586207 C45.5936645,8.27586207 46.3448276,9.01755393 46.3448276,9.9324773 L46.3448276,13.2413793 L1.65517241,13.2413793 L1.65517241,13.2413793 L1.65517241,13.2413793 Z M24.8275862,6.62068966 L21.5172414,0 L3.31491332,0 C1.48413724,0 0,1.47256378 0,3.29570483 L0,33.1180883 C0,34.9382557 1.48917961,36.4137931 3.29923438,36.4137931 L44.7007657,36.4137931 C46.5228824,36.4137931 48,34.9363485 48,33.1115763 L48,9.92290643 C48,8.09914246 46.5152109,6.62068966 44.679958,6.62068966 L24.8275862,6.62068966 L24.8275862,6.62068966 L24.8275862,6.62068966 Z" id="folder-download" fill="#3B3D4D"></path>
                </g>
            </g>
            <g id="3" transform="translate(408.000000, 131.000000)">
                <rect id="Rectangle-342" stroke="#E2E2E4" stroke-width="2" fill="#FFFFFF" x="0" y="0" width="120" height="120" rx="100"></rect>
                <path d="M37,46.9961002 C37,45.3413998 38.3433937,44 39.9936145,44 L81.0063855,44 C82.6597131,44 84,45.3342595 84,46.9961002 L84,73.0038998 C84,74.6586002 82.6554584,76 80.9987624,76 L53.4536133,76 C53.0281534,76 53.8742421,72.5756879 52.8754883,71.828125 C50.9181276,70.363049 46.7171183,71.0546875 45.8833008,71.0546875 C45.6076622,71.0546875 45.3760926,75.9552574 45.0981445,76 C42.2511556,76.4582935 39.9814514,76.1718601 39.9814514,76.1718601 C38.3348413,76.0769444 37,74.6657405 37,73.0038998 L37,46.9961002 Z" id="Rectangle-33" fill="#D8D8D8"></path>
                <g id="icon" transform="translate(36.000000, 43.000000)">
                    <rect id="Rectangle-27" fill="#F2F2F6" x="7" y="17" width="12" height="12" rx="100"></rect>
                    <path d="M18,27.8989828 L18,32 L43.9950766,32 C45.1023652,32 46,31.1021596 46,29.985032 L46,4.01496794 C46,2.90213188 45.1210834,2 43.9950766,2 L4.00492334,2 C2.89763476,2 2,2.89784042 2,4.01496794 L2,29.985032 C2,31.0978682 2.87891668,32 4.00492334,32 L8,32 L8,27.8989828 C6.76281296,26.6364458 6,24.9073052 6,23 C6,19.1340066 9.13400656,16 13,16 C16.8659934,16 20,19.1340066 20,23 C20,24.9073052 19.237187,26.6364458 18,27.8989828 L18,27.8989828 L18,27.8989828 L18,27.8989828 Z M10,29.326369 L10,37.1999512 L13,34.2000122 L16,37.1999512 L16,29.326369 C15.0907446,29.758309 14.0735974,30 13,30 C11.9264027,30 10.9092554,29.758309 10,29.326369 L10,29.326369 L10,29.326369 L10,29.326369 Z M8,34 L4.00989318,34 C1.79405246,34 0,32.209044 0,29.9997876 L0,4.00021236 C0,1.78011682 1.79529032,0 4.00989318,0 L43.9901068,0 C46.2059476,0 48,1.79095608 48,4.00021236 L48,29.9997876 C48,32.2198832 46.2047096,34 43.9901068,34 L18,34 L18,42 L13,37 L8,42 L8,34 L8,34 L8,34 Z M6,10 L6,12 L42,12 L42,10 L6,10 L6,10 L6,10 Z M24,16 L24,18 L42,18 L42,16 L24,16 L24,16 L24,16 Z M30,22 L30,24 L42,24 L42,22 L30,22 L30,22 L30,22 Z M13,28 C15.7614238,28 18,25.7614238 18,23 C18,20.2385762 15.7614238,18 13,18 C10.2385761,18 8,20.2385762 8,23 C8,25.7614238 10.2385761,28 13,28 L13,28 L13,28 Z" id="certificate" fill="#3B3D4D"></path>
                </g>
            </g>
            <g id="social" transform="translate(30.000000, 341.000000)">
                <g id="inst" transform="translate(146.260870, 0.000000)">
                    <ellipse id="Oval_3_" fill="#3B3D4D" cx="13.8695652" cy="14" rx="13.8695652" ry="14"></ellipse>
                    <path d="M17.7152174,7.63636364 L9.96086957,7.63636364 C8.63695652,7.63636364 7.50217391,8.71818182 7.50217391,10.1181818 L7.50217391,17.9454545 C7.50217391,19.2818182 8.57391304,20.4272727 9.96086957,20.4272727 L17.7152174,20.4272727 C19.0391304,20.4272727 20.173913,19.3454545 20.173913,17.9454545 L20.173913,10.1181818 C20.173913,8.71818182 19.1021739,7.63636364 17.7152174,7.63636364 L17.7152174,7.63636364 L17.7152174,7.63636364 Z M18.4086957,9.1 L18.6608696,9.1 L18.6608696,11.2636364 L16.5173913,11.2636364 L16.5173913,9.1 L18.4086957,9.1 L18.4086957,9.1 L18.4086957,9.1 Z M12.0413043,12.6636364 C12.4195652,12.0909091 13.1130435,11.7090909 13.8695652,11.7090909 C14.626087,11.7090909 15.2565217,12.0909091 15.6978261,12.6636364 C15.95,13.0454545 16.1391304,13.4909091 16.1391304,14 C16.1391304,15.2090909 15.1304348,16.2272727 13.9326087,16.2272727 C12.7347826,16.2272727 11.726087,15.2090909 11.726087,14 C11.6630435,13.4909091 11.7891304,13.0454545 12.0413043,12.6636364 L12.0413043,12.6636364 L12.0413043,12.6636364 Z M18.976087,17.8818182 C18.976087,18.5818182 18.4086957,19.0909091 17.7782609,19.0909091 L10.023913,19.0909091 C9.33043478,19.0909091 8.82608696,18.5181818 8.82608696,17.8818182 L8.82608696,12.6636364 L10.7173913,12.6636364 C10.5282609,13.0454545 10.4652174,13.4909091 10.4652174,14 C10.4652174,15.9090909 12.0413043,17.5 13.9326087,17.5 C15.823913,17.5 17.4,15.9090909 17.4,14 C17.4,13.5545455 17.3369565,13.1090909 17.1478261,12.6636364 L19.0391304,12.6636364 L19.0391304,17.8818182 L18.976087,17.8818182 L18.976087,17.8818182 Z" id="Shape_3_" fill="#FFFFFF"></path>
                </g>
                <g id="vimeo" transform="translate(109.695652, 0.000000)">
                    <ellipse id="Oval_10_" fill="#3B3D4D" cx="13.8695652" cy="14" rx="13.8695652" ry="14"></ellipse>
                    <path d="M17.5891304,16.8636364 C15.8869565,19.2181818 14.4369565,20.3636364 13.2391304,20.3636364 C12.4826087,20.3636364 11.8521739,19.6636364 11.3478261,18.2 C11.0326087,16.8636364 10.6543478,15.5909091 10.3391304,14.2545455 C9.96086957,12.8545455 9.5826087,12.0909091 9.14130435,12.0909091 C9.07826087,12.0909091 8.7,12.2818182 8.1326087,12.7272727 L7.56521739,11.9 C8.19565217,11.3272727 8.82608696,10.7545455 9.39347826,10.1818182 C10.2130435,9.41818182 10.8434783,9.03636364 11.2847826,8.97272727 C12.2934783,8.84545455 12.8608696,9.60909091 13.1130435,11.0727273 C13.3652174,12.7272727 13.5543478,13.6818182 13.6173913,14.1272727 C13.8695652,15.4636364 14.1847826,16.1636364 14.5630435,16.1636364 C14.8152174,16.1636364 15.1934783,15.7181818 15.7608696,14.8272727 C16.2652174,13.9363636 16.5804348,13.3 16.5804348,12.8545455 C16.6434783,12.0909091 16.3913043,11.7090909 15.7608696,11.7090909 C15.4456522,11.7090909 15.1304348,11.7727273 14.8152174,11.9 C15.4456522,9.8 16.6434783,8.71818182 18.3456522,8.78181818 C19.6695652,8.84545455 20.2369565,9.67272727 20.173913,11.4545455 C20.1108696,12.8545455 19.2282609,14.6363636 17.5891304,16.8636364 L17.5891304,16.8636364 Z" id="Shape_10_" fill="#FFFFFF"></path>
                </g>
                <g id="tw" transform="translate(73.130435, 0.000000)">
                    <ellipse id="Oval_1_" fill="#3B3D4D" cx="13.8695652" cy="14" rx="13.8695652" ry="14"></ellipse>
                    <path d="M19.2282609,10.6909091 C19.7956522,10.3090909 20.2369565,9.73636364 20.426087,9.1 C19.9217391,9.41818182 19.2913043,9.67272727 18.723913,9.8 C18.2195652,9.22727273 17.526087,8.90909091 16.7695652,8.90909091 C15.2565217,8.90909091 14.0586957,10.1818182 14.0586957,11.7727273 C14.0586957,12.0272727 14.0586957,12.2181818 14.1217391,12.4090909 C11.8521739,12.2818182 9.83478261,11.1363636 8.51086957,9.41818182 C8.25869565,9.86363636 8.1326087,10.3727273 8.1326087,10.8818182 C8.1326087,11.9 8.63695652,12.7909091 9.33043478,13.3 C8.88913043,13.3 8.44782609,13.1727273 8.06956522,12.9181818 L8.06956522,12.9818182 C8.06956522,14.3818182 9.01521739,15.5272727 10.276087,15.8454545 C10.023913,15.9090909 9.83478261,15.9727273 9.5826087,15.9727273 C9.39347826,15.9727273 9.2673913,15.9727273 9.07826087,15.9090909 C9.39347826,17.0545455 10.4021739,17.8818182 11.6,17.9454545 C10.6543478,18.7090909 9.51956522,19.1545455 8.19565217,19.1545455 C8.00652174,19.1545455 7.75434783,19.1545455 7.56521739,19.0909091 C8.76304348,19.9181818 10.2130435,20.3636364 11.726087,20.3636364 C16.7065217,20.3636364 19.4804348,15.9727273 19.4804348,12.1545455 L19.4804348,11.7727273 C19.9847826,11.3909091 20.4891304,10.8818182 20.8043478,10.2454545 C20.3,10.5 19.7956522,10.6272727 19.2282609,10.6909091 L19.2282609,10.6909091 Z" id="Shape_1_" fill="#FFFFFF"></path>
                </g>
                <g id="vk" transform="translate(36.565217, 0.000000)">
                    <ellipse id="Oval_4_" fill="#3B3D4D" cx="13.8695652" cy="14" rx="13.8695652" ry="14"></ellipse>
                    <path d="M14.3108696,19.0272727 C14.3108696,19.0272727 14.626087,19.0272727 14.7521739,18.8363636 C14.8782609,18.7090909 14.8782609,18.4545455 14.8782609,18.4545455 C14.8782609,18.4545455 14.8782609,17.1818182 15.4456522,16.9909091 C16.0130435,16.8 16.7695652,18.2 17.526087,18.7090909 C18.0934783,19.0909091 18.5978261,19.0272727 18.5978261,19.0272727 L20.6782609,19.0272727 C20.6782609,19.0272727 21.75,18.9636364 21.2456522,18.0727273 C21.1826087,18.0090909 20.9304348,17.4363636 19.6695652,16.2909091 C18.3456522,15.0818182 18.5347826,15.2727273 20.1108696,13.1727273 C21.0565217,11.9 21.4347826,11.1363636 21.3717391,10.7545455 C21.2456522,10.4363636 20.5521739,10.5 20.5521739,10.5 L18.1565217,10.5 C18.1565217,10.5 17.9673913,10.5 17.8413043,10.5636364 C17.7152174,10.6272727 17.6521739,10.8181818 17.6521739,10.8181818 C17.6521739,10.8181818 17.273913,11.8363636 16.7695652,12.6636364 C15.6978261,14.4454545 15.3195652,14.5090909 15.1304348,14.4454545 C14.7521739,14.1909091 14.8152174,13.4272727 14.8152174,12.8545455 C14.8152174,11.1363636 15.0673913,10.4363636 14.3108696,10.2454545 C14.0586957,10.1818182 13.8695652,10.1181818 13.176087,10.1181818 C12.3565217,10.1181818 11.6,10.1181818 11.2217391,10.3090909 C10.9695652,10.4363636 10.7173913,10.7545455 10.8434783,10.7545455 C10.9695652,10.7545455 11.3478261,10.8181818 11.5369565,11.0727273 C11.7891304,11.3909091 11.7891304,12.1545455 11.7891304,12.1545455 C11.7891304,12.1545455 11.9152174,14.1909091 11.473913,14.4454545 C11.1586957,14.6363636 10.7173913,14.2545455 9.77173913,12.6636364 C9.2673913,11.8363636 8.95217391,10.9454545 8.95217391,10.9454545 C8.95217391,10.9454545 8.88913043,10.7545455 8.76304348,10.6909091 C8.63695652,10.5636364 8.38478261,10.5636364 8.38478261,10.5636364 L6.11521739,10.5636364 C6.11521739,10.5636364 5.8,10.5636364 5.67391304,10.6909091 C5.54782609,10.8181818 5.67391304,11.0727273 5.67391304,11.0727273 C5.67391304,11.0727273 7.43913043,15.1454545 9.45652174,17.2454545 C11.2847826,19.1545455 13.3652174,19.0272727 13.3652174,19.0272727 L14.3108696,19.0272727 L14.3108696,19.0272727 L14.3108696,19.0272727 Z" id="Shape_4_" fill="#FFFFFF"></path>
                </g>
                <g id="fc">
                    <ellipse id="Oval" fill="#3B3D4D" cx="13.8695652" cy="14" rx="13.8695652" ry="14"></ellipse>
                    <path d="M14.6891304,22.2727273 L11.6,22.2727273 L11.6,14.9545455 L10.0869565,14.9545455 L10.0869565,12.4090909 L11.6,12.4090909 L11.6,10.8818182 C11.6,8.84545455 12.4826087,7.57272727 14.9413043,7.57272727 L17.0217391,7.57272727 L17.0217391,10.1181818 L15.7608696,10.1181818 C14.8152174,10.1181818 14.7521739,10.5 14.7521739,11.1363636 L14.7521739,12.4090909 L17.0217391,12.4090909 L16.7695652,14.9545455 L14.6891304,14.9545455 L14.6891304,22.2727273 L14.6891304,22.2727273 L14.6891304,22.2727273 Z" id="Shape" fill="#FFFFFF"></path>
                </g>
            </g>
            <g id="social" transform="translate(30.000000, 391.000000)">
                <g id="inst" transform="translate(146.260870, 0.000000)">
                    <ellipse id="Oval_3_" fill="#551A16" cx="13.8695652" cy="14" rx="13.8695652" ry="14"></ellipse>
                    <path d="M17.7152174,7.63636364 L9.96086957,7.63636364 C8.63695652,7.63636364 7.50217391,8.71818182 7.50217391,10.1181818 L7.50217391,17.9454545 C7.50217391,19.2818182 8.57391304,20.4272727 9.96086957,20.4272727 L17.7152174,20.4272727 C19.0391304,20.4272727 20.173913,19.3454545 20.173913,17.9454545 L20.173913,10.1181818 C20.173913,8.71818182 19.1021739,7.63636364 17.7152174,7.63636364 L17.7152174,7.63636364 L17.7152174,7.63636364 Z M18.4086957,9.1 L18.6608696,9.1 L18.6608696,11.2636364 L16.5173913,11.2636364 L16.5173913,9.1 L18.4086957,9.1 L18.4086957,9.1 L18.4086957,9.1 Z M12.0413043,12.6636364 C12.4195652,12.0909091 13.1130435,11.7090909 13.8695652,11.7090909 C14.626087,11.7090909 15.2565217,12.0909091 15.6978261,12.6636364 C15.95,13.0454545 16.1391304,13.4909091 16.1391304,14 C16.1391304,15.2090909 15.1304348,16.2272727 13.9326087,16.2272727 C12.7347826,16.2272727 11.726087,15.2090909 11.726087,14 C11.6630435,13.4909091 11.7891304,13.0454545 12.0413043,12.6636364 L12.0413043,12.6636364 L12.0413043,12.6636364 Z M18.976087,17.8818182 C18.976087,18.5818182 18.4086957,19.0909091 17.7782609,19.0909091 L10.023913,19.0909091 C9.33043478,19.0909091 8.82608696,18.5181818 8.82608696,17.8818182 L8.82608696,12.6636364 L10.7173913,12.6636364 C10.5282609,13.0454545 10.4652174,13.4909091 10.4652174,14 C10.4652174,15.9090909 12.0413043,17.5 13.9326087,17.5 C15.823913,17.5 17.4,15.9090909 17.4,14 C17.4,13.5545455 17.3369565,13.1090909 17.1478261,12.6636364 L19.0391304,12.6636364 L19.0391304,17.8818182 L18.976087,17.8818182 L18.976087,17.8818182 Z" id="Shape_3_" fill="#FFFFFF"></path>
                </g>
                <g id="vimeo" transform="translate(109.695652, 0.000000)">
                    <ellipse id="Oval_10_" fill="#369BF8" cx="13.8695652" cy="14" rx="13.8695652" ry="14"></ellipse>
                    <path d="M17.5891304,16.8636364 C15.8869565,19.2181818 14.4369565,20.3636364 13.2391304,20.3636364 C12.4826087,20.3636364 11.8521739,19.6636364 11.3478261,18.2 C11.0326087,16.8636364 10.6543478,15.5909091 10.3391304,14.2545455 C9.96086957,12.8545455 9.5826087,12.0909091 9.14130435,12.0909091 C9.07826087,12.0909091 8.7,12.2818182 8.1326087,12.7272727 L7.56521739,11.9 C8.19565217,11.3272727 8.82608696,10.7545455 9.39347826,10.1818182 C10.2130435,9.41818182 10.8434783,9.03636364 11.2847826,8.97272727 C12.2934783,8.84545455 12.8608696,9.60909091 13.1130435,11.0727273 C13.3652174,12.7272727 13.5543478,13.6818182 13.6173913,14.1272727 C13.8695652,15.4636364 14.1847826,16.1636364 14.5630435,16.1636364 C14.8152174,16.1636364 15.1934783,15.7181818 15.7608696,14.8272727 C16.2652174,13.9363636 16.5804348,13.3 16.5804348,12.8545455 C16.6434783,12.0909091 16.3913043,11.7090909 15.7608696,11.7090909 C15.4456522,11.7090909 15.1304348,11.7727273 14.8152174,11.9 C15.4456522,9.8 16.6434783,8.71818182 18.3456522,8.78181818 C19.6695652,8.84545455 20.2369565,9.67272727 20.173913,11.4545455 C20.1108696,12.8545455 19.2282609,14.6363636 17.5891304,16.8636364 L17.5891304,16.8636364 Z" id="Shape_10_" fill="#FFFFFF"></path>
                </g>
                <g id="tw" transform="translate(73.130435, 0.000000)">
                    <ellipse id="Oval_1_" fill="#55ACEE" cx="13.8695652" cy="14" rx="13.8695652" ry="14"></ellipse>
                    <path d="M19.2282609,10.6909091 C19.7956522,10.3090909 20.2369565,9.73636364 20.426087,9.1 C19.9217391,9.41818182 19.2913043,9.67272727 18.723913,9.8 C18.2195652,9.22727273 17.526087,8.90909091 16.7695652,8.90909091 C15.2565217,8.90909091 14.0586957,10.1818182 14.0586957,11.7727273 C14.0586957,12.0272727 14.0586957,12.2181818 14.1217391,12.4090909 C11.8521739,12.2818182 9.83478261,11.1363636 8.51086957,9.41818182 C8.25869565,9.86363636 8.1326087,10.3727273 8.1326087,10.8818182 C8.1326087,11.9 8.63695652,12.7909091 9.33043478,13.3 C8.88913043,13.3 8.44782609,13.1727273 8.06956522,12.9181818 L8.06956522,12.9818182 C8.06956522,14.3818182 9.01521739,15.5272727 10.276087,15.8454545 C10.023913,15.9090909 9.83478261,15.9727273 9.5826087,15.9727273 C9.39347826,15.9727273 9.2673913,15.9727273 9.07826087,15.9090909 C9.39347826,17.0545455 10.4021739,17.8818182 11.6,17.9454545 C10.6543478,18.7090909 9.51956522,19.1545455 8.19565217,19.1545455 C8.00652174,19.1545455 7.75434783,19.1545455 7.56521739,19.0909091 C8.76304348,19.9181818 10.2130435,20.3636364 11.726087,20.3636364 C16.7065217,20.3636364 19.4804348,15.9727273 19.4804348,12.1545455 L19.4804348,11.7727273 C19.9847826,11.3909091 20.4891304,10.8818182 20.8043478,10.2454545 C20.3,10.5 19.7956522,10.6272727 19.2282609,10.6909091 L19.2282609,10.6909091 Z" id="Shape_1_" fill="#FFFFFF"></path>
                </g>
                <g id="vk" transform="translate(36.565217, 0.000000)">
                    <ellipse id="Oval_4_" fill="#4D75A3" cx="13.8695652" cy="14" rx="13.8695652" ry="14"></ellipse>
                    <path d="M14.3108696,19.0272727 C14.3108696,19.0272727 14.626087,19.0272727 14.7521739,18.8363636 C14.8782609,18.7090909 14.8782609,18.4545455 14.8782609,18.4545455 C14.8782609,18.4545455 14.8782609,17.1818182 15.4456522,16.9909091 C16.0130435,16.8 16.7695652,18.2 17.526087,18.7090909 C18.0934783,19.0909091 18.5978261,19.0272727 18.5978261,19.0272727 L20.6782609,19.0272727 C20.6782609,19.0272727 21.75,18.9636364 21.2456522,18.0727273 C21.1826087,18.0090909 20.9304348,17.4363636 19.6695652,16.2909091 C18.3456522,15.0818182 18.5347826,15.2727273 20.1108696,13.1727273 C21.0565217,11.9 21.4347826,11.1363636 21.3717391,10.7545455 C21.2456522,10.4363636 20.5521739,10.5 20.5521739,10.5 L18.1565217,10.5 C18.1565217,10.5 17.9673913,10.5 17.8413043,10.5636364 C17.7152174,10.6272727 17.6521739,10.8181818 17.6521739,10.8181818 C17.6521739,10.8181818 17.273913,11.8363636 16.7695652,12.6636364 C15.6978261,14.4454545 15.3195652,14.5090909 15.1304348,14.4454545 C14.7521739,14.1909091 14.8152174,13.4272727 14.8152174,12.8545455 C14.8152174,11.1363636 15.0673913,10.4363636 14.3108696,10.2454545 C14.0586957,10.1818182 13.8695652,10.1181818 13.176087,10.1181818 C12.3565217,10.1181818 11.6,10.1181818 11.2217391,10.3090909 C10.9695652,10.4363636 10.7173913,10.7545455 10.8434783,10.7545455 C10.9695652,10.7545455 11.3478261,10.8181818 11.5369565,11.0727273 C11.7891304,11.3909091 11.7891304,12.1545455 11.7891304,12.1545455 C11.7891304,12.1545455 11.9152174,14.1909091 11.473913,14.4454545 C11.1586957,14.6363636 10.7173913,14.2545455 9.77173913,12.6636364 C9.2673913,11.8363636 8.95217391,10.9454545 8.95217391,10.9454545 C8.95217391,10.9454545 8.88913043,10.7545455 8.76304348,10.6909091 C8.63695652,10.5636364 8.38478261,10.5636364 8.38478261,10.5636364 L6.11521739,10.5636364 C6.11521739,10.5636364 5.8,10.5636364 5.67391304,10.6909091 C5.54782609,10.8181818 5.67391304,11.0727273 5.67391304,11.0727273 C5.67391304,11.0727273 7.43913043,15.1454545 9.45652174,17.2454545 C11.2847826,19.1545455 13.3652174,19.0272727 13.3652174,19.0272727 L14.3108696,19.0272727 L14.3108696,19.0272727 L14.3108696,19.0272727 Z" id="Shape_4_" fill="#FFFFFF"></path>
                </g>
                <g id="fc">
                    <ellipse id="Oval" fill="#3B5998" cx="13.8695652" cy="14" rx="13.8695652" ry="14"></ellipse>
                    <path d="M14.6891304,22.2727273 L11.6,22.2727273 L11.6,14.9545455 L10.0869565,14.9545455 L10.0869565,12.4090909 L11.6,12.4090909 L11.6,10.8818182 C11.6,8.84545455 12.4826087,7.57272727 14.9413043,7.57272727 L17.0217391,7.57272727 L17.0217391,10.1181818 L15.7608696,10.1181818 C14.8152174,10.1181818 14.7521739,10.5 14.7521739,11.1363636 L14.7521739,12.4090909 L17.0217391,12.4090909 L16.7695652,14.9545455 L14.6891304,14.9545455 L14.6891304,22.2727273 L14.6891304,22.2727273 L14.6891304,22.2727273 Z" id="Shape" fill="#FFFFFF"></path>
                </g>
            </g>
            <path d="M149.550153,36 L138.683682,36 C138.2411,36 137.882119,36.3544742 137.882119,36.7917558 L137.882119,42.3340465 L139.074801,42.3340465 L139.074801,37.8470843 C139.074801,37.4216323 139.423909,37.0767049 139.854518,37.0767049 L148.379526,37.0767049 C148.810135,37.0767049 149.159034,37.4216323 149.159034,37.8470843 L149.159034,52.7752614 C149.159034,53.2007134 148.810135,53.5456408 148.379526,53.5456408 L139.854308,53.5456408 C139.423699,53.5456408 139.074591,53.2007134 139.074591,52.7752614 L139.074591,48.2563384 L137.881909,48.2563384 L137.881909,53.8625507 C137.881909,54.2994172 138.24089,54.6538914 138.683472,54.6538914 L149.549942,54.6538914 C149.992314,54.6538914 150.351085,54.2994172 150.351085,53.8625507 L150.351085,36.7917558 C150.351505,36.3544742 149.992735,36 149.550153,36 Z M140.674356,48.1467586 C140.458841,48.3549188 140.45464,48.695903 140.664903,48.908629 C140.875377,49.121355 141.220704,49.1255057 141.436009,48.9177606 L144.299243,46.1550206 L145.079801,45.4024894 L144.317728,44.6314873 L141.478649,41.7591674 C141.268176,41.5462339 140.922849,41.5422907 140.707544,41.7500358 C140.49224,41.9579884 140.487829,42.2991802 140.698302,42.5121137 L142.932217,44.7721978 L132.545298,44.7721978 C132.244082,44.7721978 132,45.0133564 132,45.3109653 C132,45.6083666 132.244082,45.8497328 132.545298,45.8497328 L143.055308,45.8497328 L140.674356,48.1467586 Z" id="Shape" fill="#000000" transform="translate(141.175543, 45.326946) scale(-1, 1) translate(-141.175543, -45.326946) "></path>
            <path d="M149.550153,74 L138.683682,74 C138.2411,74 137.882119,74.3587708 137.882119,74.8013528 L137.882119,80.4108228 L139.074801,80.4108228 L139.074801,75.8694732 C139.074801,75.4388642 139.423909,75.0897559 139.854518,75.0897559 L148.379526,75.0897559 C148.810135,75.0897559 149.159034,75.4388642 149.159034,75.8694732 L149.159034,90.9785979 C149.159034,91.4092069 148.810135,91.7583152 148.379526,91.7583152 L139.854308,91.7583152 C139.423699,91.7583152 139.074591,91.4092069 139.074591,90.9785979 L139.074591,86.4049001 L137.881909,86.4049001 L137.881909,92.0790664 C137.881909,92.5212283 138.24089,92.8799992 138.683472,92.8799992 L149.549942,92.8799992 C149.992314,92.8799992 150.351085,92.5212283 150.351085,92.0790664 L150.351085,74.8013528 C150.351505,74.3587708 149.992735,74 149.550153,74 Z M140.674356,86.293992 C140.458841,86.5046754 140.45464,86.8497927 140.664903,87.0650972 C140.875377,87.2804017 141.220704,87.2846028 141.436009,87.0743396 L144.299243,84.2781117 L145.079801,83.5164589 L144.317728,82.7361114 L141.478649,79.8289755 C141.268176,79.613461 140.922849,79.6094699 140.707544,79.8197332 C140.49224,80.0302064 140.487829,80.3755339 140.698302,80.5910484 L142.932217,82.8785275 L132.545298,82.8785275 C132.244082,82.8785275 132,83.1226092 132,83.4238255 C132,83.7248317 132.244082,83.9691235 132.545298,83.9691235 L143.055308,83.9691235 L140.674356,86.293992 Z" id="Shape" fill="#000000"></path>
            <g id="play" transform="translate(321.000000, 337.000000)">
                <rect id="Rectangle-29" fill="#66CBEC" x="0" y="0" width="36" height="36" rx="100"></rect>
                <polygon id="Triangle-1" fill="#FFFFFF" transform="translate(19.000000, 18.000000) rotate(-270.000000) translate(-19.000000, -18.000000) " points="19 15 25 21 13 21 "></polygon>
            </g>
            <path d="M402.045455,50.0384615 C401.840909,49.9 401.568182,49.9 401.363636,50.0384615 L396.318182,53.1538462 L396.318182,52.5307692 C396.318182,50.5923077 394.75,49 392.840909,49 L376.477273,49 C374.568182,49 373,50.5923077 373,52.5307692 L373,62.5692308 C373,64.5076923 374.568182,66.1 376.477273,66.1 L392.840909,66.1 C394.75,66.1 396.318182,64.5076923 396.318182,62.5692308 L396.318182,61.9461538 L401.363636,65.0615385 C401.5,65.1307692 401.568182,65.1307692 401.704545,65.1307692 C401.840909,65.1307692 401.909091,65.1307692 402.045455,65.0615385 C402.25,64.9230769 402.386364,64.7153846 402.386364,64.4384615 L402.386364,50.5923077 C402.386364,50.3846154 402.25,50.1769231 402.045455,50.0384615 L402.045455,50.0384615 Z M394.954545,62.5692308 C394.954545,63.7461538 394,64.7153846 392.840909,64.7153846 L376.477273,64.7153846 C375.318182,64.7153846 374.363636,63.7461538 374.363636,62.5692308 L374.363636,52.6 C374.363636,51.4230769 375.318182,50.4538462 376.477273,50.4538462 L392.840909,50.4538462 C394,50.4538462 394.954545,51.4230769 394.954545,52.6 L394.954545,54.4 L394.954545,60.7 L394.954545,62.5692308 L394.954545,62.5692308 Z M401.022727,63.2615385 L396.318182,60.3538462 L396.318182,54.8153846 L401.022727,51.9076923 L401.022727,63.2615385 L401.022727,63.2615385 Z" id="Shape" fill="#66CBEC"></path>
            <g id="icon" transform="translate(327.000000, 45.000000)" fill="#66CBEC">
                <path d="M21.8571429,0.142857143 L9.21428571,0.142857143 C7.71428571,0.142857143 6.42857143,1.35714286 6.42857143,2.92857143 L6.42857143,7.85714286 L1.28571429,7.85714286 C0.857142857,7.85714286 0.571428571,8.14285714 0.571428571,8.57142857 L0.571428571,21.3571429 C0.571428571,23.3571429 2.21428571,25 4.21428571,25 L22,25 L22.0714286,25 C23.5,24.9285714 24.6428571,23.7142857 24.6428571,22.2857143 L24.6428571,2.92857143 C24.5714286,1.35714286 23.3571429,0.142857143 21.8571429,0.142857143 L21.8571429,0.142857143 Z M1.92857143,21.3571429 L1.92857143,9.28571429 L6.35714286,9.28571429 L6.35714286,21.3571429 L6.35714286,21.3571429 C6.35714286,22.5714286 5.35714286,23.5714286 4.14285714,23.5714286 C2.92857143,23.6428571 1.92857143,22.6428571 1.92857143,21.3571429 L1.92857143,21.3571429 Z M23.1428571,22.2857143 C23.1428571,23 22.5714286,23.6428571 21.7857143,23.6428571 L7,23.6428571 C7.5,23 7.78571429,22.2857143 7.78571429,21.4285714 L7.78571429,21.4285714 L7.78571429,8.57142857 L7.78571429,8.57142857 L7.78571429,8.57142857 L7.78571429,2.92857143 C7.78571429,2.21428571 8.35714286,1.57142857 9.14285714,1.57142857 L21.7857143,1.57142857 C22.5,1.57142857 23.1428571,2.14285714 23.1428571,2.92857143 L23.1428571,22.2857143 L23.1428571,22.2857143 Z" id="Shape"></path>
                <path d="M11.0714286,8.07142857 L14.7857143,8.07142857 C15.0714286,8.07142857 15.3571429,7.85714286 15.3571429,7.5 C15.3571429,7.14285714 15.1428571,6.92857143 14.7857143,6.92857143 L11.0714286,6.92857143 C10.7857143,6.92857143 10.5,7.14285714 10.5,7.5 C10.5,7.85714286 10.7142857,8.07142857 11.0714286,8.07142857 L11.0714286,8.07142857 Z" id="Shape"></path>
                <path d="M20.5714286,10.2142857 L11,10.2142857 C10.7142857,10.2142857 10.4285714,10.4285714 10.4285714,10.7857143 C10.4285714,11.1428571 10.6428571,11.3571429 11,11.3571429 L20.5714286,11.3571429 C20.8571429,11.3571429 21.1428571,11.1428571 21.1428571,10.7857143 C21.1428571,10.4285714 20.8571429,10.2142857 20.5714286,10.2142857 L20.5714286,10.2142857 Z" id="Shape"></path>
                <path d="M20.5714286,13.4285714 L11,13.4285714 C10.7142857,13.4285714 10.4285714,13.6428571 10.4285714,14 C10.4285714,14.3571429 10.6428571,14.5714286 11,14.5714286 L20.5714286,14.5714286 C20.8571429,14.5714286 21.1428571,14.3571429 21.1428571,14 C21.1428571,13.6428571 20.8571429,13.4285714 20.5714286,13.4285714 L20.5714286,13.4285714 Z" id="Shape"></path>
                <path d="M20.5714286,16.6428571 L11,16.6428571 C10.7142857,16.6428571 10.4285714,16.8571429 10.4285714,17.2142857 C10.4285714,17.5714286 10.6428571,17.7857143 11,17.7857143 L20.5714286,17.7857143 C20.8571429,17.7857143 21.1428571,17.5714286 21.1428571,17.2142857 C21.1428571,16.8571429 20.8571429,16.6428571 20.5714286,16.6428571 L20.5714286,16.6428571 Z" id="Shape"></path>
            </g>
            <g id="book" transform="translate(643.000000, 265.000000)">
                <path d="M26.8190022,35.9807731 L4.59754324,35.9807731 C2.0627644,35.9807731 0,33.9628515 0,31.4831765 L0,4.49759664 C0,1.96544973 2.88265961,0 5.36380044,0 L26.052745,0 C26.4741865,0 26.8190022,0.335820549 26.8190022,0.749599441 C26.8190022,1.16337833 26.4741865,1.49919888 26.052745,1.49919888 L5.36380044,1.49919888 C3.63972173,1.49919888 1.53251441,2.88295945 1.53251441,4.49759664 L1.53251441,5.99679552 C1.53251441,7.61143272 3.63972173,8.99519329 5.36380044,8.99519329 L26.8190022,8.99519329 C27.2404437,8.99519329 27.5852594,9.33101384 27.5852594,9.74479273 L27.5852594,35.2311737 C27.5852594,35.6434534 27.2404437,35.9807731 26.8190022,35.9807731 L26.8190022,35.9807731 Z M1.53251441,9.01468287 L1.53251441,31.4831765 C1.53251441,33.1382921 2.90717984,34.4815743 4.59754324,34.4815743 L26.052745,34.4815743 L26.052745,10.4943922 L5.36380044,10.4943922 C4.03357793,10.4943922 2.58688433,9.92919419 1.53251441,9.01468287 L1.53251441,9.01468287 Z" id="Shape" fill="#3B3D4E"></path>
                <path d="M24.5202306,5.99679552 L4.59754324,5.99679552 C4.17456926,5.99679552 3.83128603,5.66097498 3.83128603,5.24719608 C3.83128603,4.83341719 4.17456926,4.49759664 4.59754324,4.49759664 L24.5202306,4.49759664 C24.9416721,4.49759664 25.2864878,4.83341719 25.2864878,5.24719608 C25.2864878,5.66097498 24.9416721,5.99679552 24.5202306,5.99679552 L24.5202306,5.99679552 Z" id="Shape" fill="#999999"></path>
            </g>
            <g id="icon" transform="translate(712.000000, 265.000000)">
                <rect id="Rectangle-39" fill="#F2F2F6" x="12" y="8" width="15" height="15" rx="100"></rect>
                <path d="M0.808510638,18.5498182 C0.679148936,18.5498182 0.549787234,18.5170909 0.43012766,18.4516364 C0.0355744681,18.2389091 -0.113191489,17.7430909 0.0954042553,17.3438182 L8.90008511,0.639818182 C9.18144681,0.106363636 10.0465532,0.106363636 10.3279149,0.639818182 L14.666383,8.86909091 C14.8782128,9.26836364 14.7262128,9.76418182 14.3316596,9.97690909 C13.9403404,10.1847273 13.4471489,10.0390909 13.2401702,9.63981818 L9.61319149,2.76218182 L1.52161702,18.1161818 C1.37770213,18.3927273 1.09957447,18.5498182 0.808510638,18.5498182 L0.808510638,18.5498182 Z" id="Shape" fill="#3B3D4E"></path>
                <path d="M10.5106383,13.7078182 L5.65957447,13.7078182 C5.21489362,13.7078182 4.85106383,13.3396364 4.85106383,12.8896364 C4.85106383,12.438 5.21489362,12.0714545 5.65957447,12.0714545 L10.5106383,12.0714545 C10.9553191,12.0714545 11.3191489,12.438 11.3191489,12.8896364 C11.3191489,13.3396364 10.9553191,13.7078182 10.5106383,13.7078182 L10.5106383,13.7078182 Z" id="Shape" fill="#999999"></path>
                <path d="M7.27659574,12.0714545 L12.1276596,12.0714545 L12.1276596,13.7078182 L7.27659574,13.7078182 L7.27659574,12.0714545 L7.27659574,12.0714545 Z" id="Shape" fill="#999999"></path>
                <path d="M33.1651064,18.6169091 L26.6808511,18.6169091 C26.2361702,18.6169091 25.8723404,18.2487273 25.8723404,17.7987273 C25.8723404,17.3470909 26.2361702,16.9805455 26.6808511,16.9805455 L33.1651064,16.9805455 C34.9405957,16.9805455 36.3829787,15.5176364 36.3829787,13.7241818 C36.3829787,11.9143636 34.9276596,10.4350909 33.132766,10.4350909 L29.4960851,10.4350909 C29.0497872,10.4350909 28.6875745,10.0669091 28.6875745,9.61690909 C28.6875745,9.16527273 29.0497872,8.79872727 29.4960851,8.79872727 L29.9310638,8.79872727 C31.7065532,8.79872727 33.1489362,7.33581818 33.1489362,5.54236364 C33.1489362,3.71454545 31.7049362,2.25327273 29.9310638,2.25327273 L25.0638298,2.25327273 L25.0638298,8.79872727 C25.0638298,9.24872727 24.7,9.61690909 24.2553191,9.61690909 C23.8106383,9.61690909 23.4468085,9.24872727 23.4468085,8.79872727 L23.4468085,1.43509091 C23.4468085,0.983454545 23.8106383,0.616909091 24.2553191,0.616909091 L29.9310638,0.616909091 C32.5959149,0.616909091 34.7659574,2.81127273 34.7659574,5.50963636 C34.7659574,6.78109091 34.2937872,7.93963636 33.519234,8.81345455 C36.024,9.01309091 38,11.1387273 38,13.7225455 C38,16.4225455 35.8299574,18.6169091 33.1651064,18.6169091 L33.1651064,18.6169091 Z" id="Shape" fill="#3B3D4E"></path>
                <path d="M26.8603404,35.7610909 C26.5385532,35.7610909 26.2313191,35.5630909 26.1084255,35.244 L21.2977872,22.7945455 C21.1328511,22.374 21.3398298,21.8994545 21.7570213,21.7358182 C22.1709787,21.5689091 22.6415319,21.78 22.801617,22.1989091 L27.6122553,34.6450909 C27.7755745,35.0656364 27.5702128,35.5401818 27.1530213,35.7054545 C27.059234,35.7430909 26.9605957,35.7610909 26.8603404,35.7610909 L26.8603404,35.7610909 Z" id="Shape" fill="#3B3D4E"></path>
                <path d="M19.2490213,23.85 C15.7206809,23.85 12.6095319,21.6998182 11.322383,18.3698182 C10.4944681,16.2261818 10.5429787,13.8861818 11.4533617,11.7785455 C12.3637447,9.67090909 14.0357447,8.04927273 16.1508085,7.21145455 C17.1452766,6.81872727 18.1898723,6.61909091 19.2490213,6.61909091 C22.7822128,6.61909091 25.8933617,8.76763636 27.1788936,12.0976364 C28.8848511,16.5223636 26.7180426,21.528 22.347234,23.256 C21.354383,23.6503636 20.3146383,23.85 19.2490213,23.85 L19.2490213,23.85 Z M19.2490213,8.25545455 C18.393617,8.25545455 17.5462979,8.41745455 16.7410213,8.73654545 C15.0221277,9.414 13.6735319,10.728 12.9345532,12.4363636 C12.1955745,14.1430909 12.16,16.0396364 12.8294468,17.7741818 C13.8740426,20.4709091 16.3917447,22.2136364 19.2554894,22.2136364 C20.1125106,22.2136364 20.9582128,22.0516364 21.7651064,21.7325455 C25.304766,20.3350909 27.057617,16.2769091 25.6782979,12.6949091 C24.6304681,9.99490909 22.112766,8.25545455 19.2490213,8.25545455 L19.2490213,8.25545455 Z" id="Shape" fill="#3B3D4E"></path>
            </g>
            <g id="Group" transform="translate(792.000000, 271.000000)">
                <path d="M8.59130859,7 C8.59130859,7 15.4549154,8.72998047 18.9511719,8.72998047 C22.1907552,8.72998047 28.7988281,7 28.7988281,7 L31.0507812,17.9033203 C31.0507812,17.9033203 22.0750536,20.2734874 17.6728516,20 C14.0425015,19.774464 6.90234375,18.5029297 6.90234375,18.5029297 L8.59130859,7 Z" id="Rectangle-39" fill="#F2F2F6"></path>
                <path d="M18.6711597,21.3200057 C14.0025092,21.3200057 8.13315937,20.43101 5.66385898,17.9364645 C5.46181025,17.7338873 5.3790034,17.4375554 5.44193661,17.1562912 L7.92614224,6.27404581 L9.5408759,6.6540873 L7.16597531,17.0558397 C9.11524867,18.6429734 13.5354786,19.6508367 18.6695035,19.6508367 C23.8051846,19.6508367 28.2270707,18.6429734 30.1730317,17.0558397 L27.796475,6.6540873 L29.4128648,6.27404581 L31.8970704,17.1562912 C31.9616598,17.4375554 31.8771968,17.7338873 31.6734919,17.9364645 C29.20916,20.43101 23.338154,21.3200057 18.6711597,21.3200057 L18.6711597,21.3200057 Z" id="Shape" fill="#3B3D4E"></path>
                <path d="M18.2177971,1.6741916 L36.435305,4.185479 L18.2177971,8.37095801 L1.6564262,4.185479 L18.2177971,1.6741916 L18.2177971,1.6741916 Z M18.2177971,0 C18.1349902,0 18.0538395,0.00669676641 17.9726888,0.0184161076 L1.41131791,2.52970351 C0.629621204,2.64857111 0.0400364008,3.3082026 0.00194524775,4.10511781 C-0.0361459053,4.90203301 0.488849552,5.61523863 1.25398489,5.81111905 L17.8153558,9.99659805 C17.9478467,10.0317561 18.0819938,10.0451496 18.2177971,10.0451496 C18.3403512,10.0451496 18.4629054,10.0317561 18.5854595,10.004969 L36.8029675,5.81949001 C37.583008,5.64035151 38.126221,4.92044912 38.0881299,4.11181457 C38.0500387,3.30318003 37.4505171,2.63517758 36.6572274,2.52635513 L18.4397194,0.0150677244 C18.3668494,0.00502257481 18.2923232,1.48698085e-15 18.2177971,1.48698085e-15 L18.2177971,1.48698085e-15 L18.2177971,0 Z" id="Shape" fill="#3B3D4E"></path>
                <path d="M35.765206,19.2481962 C35.3097683,19.2481962 34.9371374,18.8715031 34.9371374,18.4111004 L34.9371374,8.36595077 C34.9371374,7.90387389 35.3097683,7.52885497 35.765206,7.52885497 C36.2206437,7.52885497 36.5932745,7.90387389 36.5932745,8.36595077 L36.5932745,18.4111004 C36.5932745,18.8715031 36.2206437,19.2481962 35.765206,19.2481962 L35.765206,19.2481962 Z" id="Shape" fill="#999999"></path>
                <path d="M35.765206,24.0527344 C35.3097683,24.0527344 34.9371374,23.6760413 34.9371374,23.2156386 L34.9371374,21.541447 C34.9371374,21.0810443 35.3097683,20.7043512 35.765206,20.7043512 C36.2206437,20.7043512 36.5932745,21.0810443 36.5932745,21.541447 L36.5932745,23.2156386 C36.5932745,23.6760413 36.2206437,24.0527344 35.765206,24.0527344 L35.765206,24.0527344 Z" id="Shape" fill="#3B3D4E"></path>
            </g>
            <path d="M450.442149,53.6116278 L447.764463,53.6116278 L447.764463,51.6623255 C447.764463,51.3079069 447.541322,51.0716279 447.206612,51.0716279 L431.252066,51.0716279 L431.252066,48.5906977 C431.252066,48.2362791 431.028926,48 430.694215,48 L424.557851,48 C424.22314,48 424,48.2362791 424,48.5906977 L424,67.729302 C424,68.0837206 424.22314,68.3199997 424.557851,68.3199997 L428.128099,68.3199997 L447.206612,68.3199997 L450.442149,68.3199997 C450.77686,68.3199997 451,68.0837206 451,67.729302 L451,54.2023255 C451,53.8479069 450.721074,53.6116278 450.442149,53.6116278 L450.442149,53.6116278 Z M425.115702,49.1813953 L430.136364,49.1813953 L430.136364,51.6623255 C430.136364,52.0167441 430.359504,52.2530232 430.694215,52.2530232 L446.64876,52.2530232 L446.64876,53.6116278 L428.128099,53.6116278 C427.793388,53.6116278 427.570248,53.8479069 427.570248,54.2023255 L427.570248,67.1386044 L425.115702,67.1386044 L425.115702,49.1813953 L425.115702,49.1813953 Z M449.884298,67.1386044 L447.206612,67.1386044 L428.68595,67.1386044 L428.68595,54.7930232 L449.884298,54.7930232 L449.884298,67.1386044 L449.884298,67.1386044 Z" id="Shape" fill="#66CBEC"></path>
            <g id="?" transform="translate(321.000000, 393.000000)">
                <rect id="Rectangle-29" fill="#66CBEC" x="0" y="0" width="36" height="36" rx="100"></rect>
                <text font-family="AvenirNext-DemiBold, Avenir Next" font-size="16" font-weight="500" line-spacing="19" fill="#FFFFFF">
                    <tspan x="14" y="24">?</tspan>
                </text>
            </g>
            <g id="play" transform="translate(321.000000, 449.000000)">
                <rect id="Rectangle-29" fill="#66CBEC" x="0" y="0" width="36" height="36" rx="100"></rect>
                <path d="M12.642367,19.8701016 C13.0135623,21.3732828 13.4855564,22.0308746 15.0599368,22.719666 C16.6351171,23.4076574 17.3831077,24.159648 18.0007,24.159648 C18.6174923,24.159648 19.3190835,23.5020562 20.8934638,22.8124648 C22.4686441,22.1236735 22.0478494,21.9140761 22.4190448,20.4108949 L18.0007,22.559668 L12.642367,19.8701016 L12.642367,19.8701016 Z M25.6094049,15.9485506 L18.9494881,12.2189973 C18.4278947,11.9270009 17.5735053,11.9270009 17.0519119,12.2189973 L10.3911951,15.9485506 C9.86960163,16.240547 9.86960163,16.718941 10.3911951,17.0109374 L17.0511119,20.7404907 C17.5727053,21.0324871 18.4270947,21.0324871 18.9486881,20.7404907 L23.2542343,18.3293209 L18.5854927,17.2357346 C18.4054949,17.279734 18.2078974,17.3045337 18.0007,17.3045337 C17.1591105,17.3045337 16.477519,16.8997388 16.477519,16.399745 C16.477519,15.8981513 17.1599105,15.4933563 18.0007,15.4933563 C18.6534918,15.4933563 19.2086849,15.7389533 19.4246822,16.080549 L24.3702204,17.7037287 L25.6094049,17.0101374 C26.1301984,16.718941 26.1301984,16.240547 25.6094049,15.9485506 L25.6094049,15.9485506 Z M23.5742303,23.0156623 C23.522231,23.3236585 24.6006175,23.8300521 24.7030162,22.9300634 C25.1662104,18.8725141 24.3702204,17.7053287 24.3702204,17.7053287 L23.2542343,18.3301209 C23.2542343,18.3293209 24.2006225,19.2301096 23.5742303,23.0156623 L23.5742303,23.0156623 Z" id="Shape" fill="#FFFFFF"></path>
            </g>
            <g id="?-copy" transform="translate(371.000000, 393.000000)">
                <rect id="Rectangle-29" fill="#F2F2F6" x="0" y="0" width="36" height="36" rx="100"></rect>
                <text id="?" font-family="AvenirNext-DemiBold, Avenir Next" font-size="16" font-weight="500" line-spacing="19" fill="#3B3D4D">
                    <tspan x="14" y="24">?</tspan>
                </text>
            </g>
            <g id="play-copy" transform="translate(371.000000, 449.000000)">
                <rect id="Rectangle-29" fill="#F2F2F6" x="0" y="0" width="36" height="36" rx="100"></rect>
                <path d="M12.642367,19.8701016 C13.0135623,21.3732828 13.4855564,22.0308746 15.0599368,22.719666 C16.6351171,23.4076574 17.3831077,24.159648 18.0007,24.159648 C18.6174923,24.159648 19.3190835,23.5020562 20.8934638,22.8124648 C22.4686441,22.1236735 22.0478494,21.9140761 22.4190448,20.4108949 L18.0007,22.559668 L12.642367,19.8701016 L12.642367,19.8701016 Z M25.6094049,15.9485506 L18.9494881,12.2189973 C18.4278947,11.9270009 17.5735053,11.9270009 17.0519119,12.2189973 L10.3911951,15.9485506 C9.86960163,16.240547 9.86960163,16.718941 10.3911951,17.0109374 L17.0511119,20.7404907 C17.5727053,21.0324871 18.4270947,21.0324871 18.9486881,20.7404907 L23.2542343,18.3293209 L18.5854927,17.2357346 C18.4054949,17.279734 18.2078974,17.3045337 18.0007,17.3045337 C17.1591105,17.3045337 16.477519,16.8997388 16.477519,16.399745 C16.477519,15.8981513 17.1599105,15.4933563 18.0007,15.4933563 C18.6534918,15.4933563 19.2086849,15.7389533 19.4246822,16.080549 L24.3702204,17.7037287 L25.6094049,17.0101374 C26.1301984,16.718941 26.1301984,16.240547 25.6094049,15.9485506 L25.6094049,15.9485506 Z M23.5742303,23.0156623 C23.522231,23.3236585 24.6006175,23.8300521 24.7030162,22.9300634 C25.1662104,18.8725141 24.3702204,17.7053287 24.3702204,17.7053287 L23.2542343,18.3301209 C23.2542343,18.3293209 24.2006225,19.2301096 23.5742303,23.0156623 L23.5742303,23.0156623 Z" id="Shape" fill="#3B3D4D"></path>
            </g>
            <g id="play" transform="translate(371.000000, 337.000000)">
                <rect id="Rectangle-29" fill="#F2F2F6" x="0" y="0" width="36" height="36" rx="100"></rect>
                <polygon id="Triangle-1" fill="#3B3D4D" transform="translate(19.000000, 18.000000) rotate(-270.000000) translate(-19.000000, -18.000000) " points="19 15 25 21 13 21 "></polygon>
            </g>
            <path d="M441.642367,467.870102 C442.013562,469.373283 442.485556,470.030875 444.059937,470.719666 C445.635117,471.407657 446.383108,472.159648 447.0007,472.159648 C447.617492,472.159648 448.319084,471.502056 449.893464,470.812465 C451.468644,470.123673 451.047849,469.914076 451.419045,468.410895 L447.0007,470.559668 L441.642367,467.870102 L441.642367,467.870102 Z M454.609405,463.948551 L447.949488,460.218997 C447.427895,459.927001 446.573505,459.927001 446.051912,460.218997 L439.391195,463.948551 C438.869602,464.240547 438.869602,464.718941 439.391195,465.010937 L446.051112,468.740491 C446.572705,469.032487 447.427095,469.032487 447.948688,468.740491 L452.254234,466.329321 L447.585493,465.235735 C447.405495,465.279734 447.207897,465.304534 447.0007,465.304534 C446.159111,465.304534 445.477519,464.899739 445.477519,464.399745 C445.477519,463.898151 446.159911,463.493356 447.0007,463.493356 C447.653492,463.493356 448.208685,463.738953 448.424682,464.080549 L453.37022,465.703729 L454.609405,465.010137 C455.130198,464.718941 455.130198,464.240547 454.609405,463.948551 L454.609405,463.948551 Z M452.57423,471.015662 C452.522231,471.323658 453.600617,471.830052 453.703016,470.930063 C454.16621,466.872514 453.37022,465.705329 453.37022,465.705329 L452.254234,466.330121 C452.254234,466.329321 453.200622,467.23011 452.57423,471.015662 L452.57423,471.015662 Z" id="Shape" fill="#3B3D4D"></path>
            <g id="1" transform="translate(598.000000, 40.000000)" fill="#FFFFFF">
                <g id="ok">
                    <path d="M4.9231,9.9691 C4.6867,9.9691 4.4507,9.8787 4.2703,9.6987 C3.9099,9.3379 3.9099,8.7539 4.2703,8.3935 L12.3927,0.2703 C12.7535,-0.0901 13.3375,-0.0901 13.6979,0.2703 C14.0587,0.6307 14.0587,1.2151 13.6979,1.5755 L5.5755,9.6987 C5.3951,9.8787 5.1591,9.9691 4.9231,9.9691 L4.9231,9.9691 Z" id="Shape"></path>
                    <path d="M4.9843,9.9063 C4.7479,9.9063 4.5119,9.8159 4.3319,9.6359 L0.2703,5.5755 C-0.0901,5.2147 -0.0901,4.6307 0.2703,4.2703 C0.6307,3.9099 1.2147,3.9099 1.5755,4.2703 L5.6367,8.3311 C5.9971,8.6911 5.9971,9.2751 5.6367,9.6363 C5.4563,9.8159 5.2199,9.9063 4.9843,9.9063 L4.9843,9.9063 Z" id="Shape"></path>
                </g>
            </g>
            <path d="M729,42.0238764 L737.41,42.0238764 L734.398234,39.011766 L737.41,36 L729,36 L729,52.8964824" id="Shape" stroke="#3B3D4D" stroke-width="2" fill="#3B3D4D" opacity="0.2"></path>
            <g id="" transform="translate(648.000000, 38.000000)" stroke="#E3424C" fill="#FFFFFF">
                <path d="M1.66882311,0.00195606835 C1.58061306,-0.00764502492 1.49900377,0.0181579132 1.43815684,0.0780447324 L0.0731214089,1.44392026 C-0.0467722433,1.56333386 -0.0144885672,1.78523913 0.135288488,1.93477616 L4.20039137,6.00047911 L0.135288488,10.065702 C-0.0144885672,10.2153591 -0.0467722433,10.4355841 0.0731214089,10.5560778 L1.43815684,11.9214733 C1.55865056,12.0424471 1.7803158,12.0252851 1.92937278,11.8761082 L5.99459568,7.80992515 L10.0604186,11.8761082 C10.2099557,12.0252851 10.4310208,12.0424471 10.5515146,11.9214733 L11.9170301,10.5560778 C12.0364437,10.4355841 12.00476,10.2153591 11.855103,10.065702 L7.7898801,6.00047911 L11.855103,1.93477616 C12.00476,1.78523913 12.0364437,1.56333386 11.9170301,1.44392026 L10.5515146,0.0780447324 C10.4310208,-0.041368865 10.2099557,-0.00956524357 10.0604186,0.139611743 L5.99459568,4.20579475 L1.92937278,0.139611743 C1.85460426,0.0644831882 1.75727318,0.0115571616 1.66882311,0.00195606835 L1.66882311,0.00195606835 Z" id="close"></path>
            </g>
            <rect id="Base" fill="#E2E2E4" x="643" y="409" width="20" height="20" rx="100"></rect>
            <rect id="Base" fill="#369BF8" filter="url(#filter-1)" x="643" y="379" width="20" height="20" rx="100"></rect>
            <circle id="Radio-Button-Indicator" fill="#FFFFFF" filter="url(#filter-2)" cx="653" cy="389" r="5"></circle>
            <path d="M163.947192,501.002282 C163.844268,500.99108 163.749046,501.021187 163.67805,501.091063 L162.085318,502.684774 C161.945426,502.824107 161.983095,503.083027 162.157855,503.257508 L166.90104,508.001393 L162.157855,512.744718 C161.983095,512.919339 161.945426,513.176299 162.085318,513.316892 L163.67805,514.910043 C163.818642,515.051196 164.077283,515.031171 164.251203,514.85711 L168.994528,510.112665 L173.738554,514.85711 C173.913034,515.031171 174.170974,515.051196 174.311567,514.910043 L175.904858,513.316892 C176.044191,513.176299 176.007222,512.919339 175.832601,512.744718 L171.089276,508.001393 L175.832601,503.257508 C176.007222,503.083027 176.044191,502.824107 175.904858,502.684774 L174.311567,501.091063 C174.170974,500.951731 173.913034,500.988839 173.738554,501.1629 L168.994528,505.907345 L164.251203,501.1629 C164.163963,501.075239 164.050396,501.013485 163.947192,501.002282 L163.947192,501.002282 Z" id="close" fill-opacity="0.5" fill="#FFFFFF"></path>
            <g id="icon" transform="translate(39.000000, 590.000000)">
                <rect id="Rectangle-39" fill="#63C533" x="24" y="16" width="30" height="30" rx="100"></rect>
                <g id="ok" transform="translate(32.000000, 26.000000)" fill="#FFFFFF">
                    <path d="M4.9231,9.9691 C4.6867,9.9691 4.4507,9.8787 4.2703,9.6987 C3.9099,9.3379 3.9099,8.7539 4.2703,8.3935 L12.3927,0.2703 C12.7535,-0.0901 13.3375,-0.0901 13.6979,0.2703 C14.0587,0.6307 14.0587,1.2151 13.6979,1.5755 L5.5755,9.6987 C5.3951,9.8787 5.1591,9.9691 4.9231,9.9691 L4.9231,9.9691 Z" id="Shape"></path>
                    <path d="M4.9843,9.9063 C4.7479,9.9063 4.5119,9.8159 4.3319,9.6359 L0.2703,5.5755 C-0.0901,5.2147 -0.0901,4.6307 0.2703,4.2703 C0.6307,3.9099 1.2147,3.9099 1.5755,4.2703 L5.6367,8.3311 C5.9971,8.6911 5.9971,9.2751 5.6367,9.6363 C5.4563,9.8159 5.2199,9.9063 4.9843,9.9063 L4.9843,9.9063 Z" id="Shape"></path>
                </g>
                <path d="M1.64096187,37 C1.37804963,37 1.1151374,36.9338666 0.871943582,36.8015997 C0.0700612671,36.3717324 -0.232287803,35.369811 0.191658175,34.5629832 L18.0861221,0.808481165 C18.6579562,-0.269493722 20.4161818,-0.269493722 20.9880159,0.808481165 L29.805435,17.4377318 C30.2359538,18.2445596 29.9270319,19.2464811 29.1251496,19.6763484 C28.3298401,20.0962956 27.3274872,19.8020019 26.9068276,18.995174 L19.5354258,5.09723401 L3.09026556,36.1237321 C2.7977757,36.6825595 2.2325144,37 1.64096187,37 L1.64096187,37 Z" id="Shape" fill="#3B3D4E"></path>
                <path d="M20.375,27 L10.625,27 C9.73125,27 9,26.325 9,25.5 C9,24.672 9.73125,24 10.625,24 L20.375,24 C21.26875,24 22,24.672 22,25.5 C22,26.325 21.26875,27 20.375,27 L20.375,27 Z" id="Shape" fill="#999999"></path>
                <path d="M14,24 L23,24 L23,27 L14,27 L14,24 L14,24 Z" id="Shape" fill="#999999"></path>
                <path d="M66.3655556,37 L53.4444444,37 C52.5583333,37 51.8333333,36.2636364 51.8333333,35.3636364 C51.8333333,34.4603636 52.5583333,33.7272727 53.4444444,33.7272727 L66.3655556,33.7272727 C69.9035556,33.7272727 72.7777778,30.8014545 72.7777778,27.2145455 C72.7777778,23.5949091 69.8777778,20.6363636 66.3011111,20.6363636 L59.0543333,20.6363636 C58.165,20.6363636 57.4432222,19.9 57.4432222,19 C57.4432222,18.0967273 58.165,17.3636364 59.0543333,17.3636364 L59.9211111,17.3636364 C63.4591111,17.3636364 66.3333333,14.4378182 66.3333333,10.8509091 C66.3333333,7.19527273 63.4558889,4.27272727 59.9211111,4.27272727 L50.2222222,4.27272727 L50.2222222,17.3636364 C50.2222222,18.2636364 49.4972222,19 48.6111111,19 C47.725,19 47,18.2636364 47,17.3636364 L47,2.63636364 C47,1.73309091 47.725,1 48.6111111,1 L59.9211111,1 C65.2313333,1 69.5555556,5.38872727 69.5555556,10.7854545 C69.5555556,13.3283636 68.6146667,15.6454545 67.0712222,17.3930909 C72.0624444,17.7923636 76,22.0436364 76,27.2112727 C76,32.6112727 71.6757778,37 66.3655556,37 L66.3655556,37 Z" id="Shape" fill="#3B3D4E"></path>
                <path d="M53.3657023,71 C52.7148513,71 52.0934358,70.6063208 51.8448696,69.971879 L42.1148106,45.2188908 C41.7812086,44.3827292 42.1998464,43.4392004 43.0436633,43.1138457 C43.880939,42.7819839 44.8326859,43.2016915 45.1564761,44.0345996 L54.886535,68.7810807 C55.2168665,69.6172424 54.8014992,70.5607711 53.9576824,70.8893794 C53.7679871,70.964211 53.56848,71 53.3657023,71 L53.3657023,71 Z" id="Shape" fill="#3B3D4E"></path>
                <path d="M39.0020307,48 C31.9567308,48 25.7444682,43.6324786 23.1743222,36.868471 C21.5211629,32.514245 21.6180277,27.7611586 23.4358571,23.480057 C25.2536866,19.1989554 28.5922934,15.9050332 32.8155987,14.2032289 C34.8013271,13.4055081 36.8871492,13 39.0020307,13 C46.057017,13 52.2692796,17.3641975 54.8361968,24.1282051 C58.242609,33.1158594 53.9159812,43.2834758 45.1884627,46.7934473 C43.2059631,47.5944919 41.1298275,48 39.0020307,48 L39.0020307,48 Z M39.0020307,16.3238367 C37.2939814,16.3238367 35.6020762,16.6528965 33.9941205,17.3010446 C30.5618777,18.677113 27.8690362,21.3461538 26.3934624,24.8162393 C24.9178886,28.2830009 24.8468544,32.1353276 26.1835887,35.6585945 C28.2694107,41.1362773 33.2966939,44.6761633 39.014946,44.6761633 C40.7262241,44.6761633 42.4149005,44.3471035 44.026085,43.6989554 C51.0939867,40.8603989 54.5940348,32.617284 51.8398457,25.3414055 C49.747566,19.857075 44.7202828,16.3238367 39.0020307,16.3238367 L39.0020307,16.3238367 Z" id="Shape" fill="#3B3D4E"></path>
            </g>
            <path d="M829.443228,411.150334 L818.157013,422.449906 L818.157013,422.449906 L815.551446,419.84434 L826.843538,408.550645 L829.443228,411.150334 L829.443228,411.150334 L829.443228,411.150334 Z M830.149916,410.44281 L831.879095,408.711584 C832.269069,408.321149 832.266195,407.686504 831.8743,407.295685 L830.694487,406.11911 C830.301865,405.727566 829.669258,405.724525 829.277913,406.115925 L827.550595,407.843488 L830.149916,410.44281 L830.149916,410.44281 L830.149916,410.44281 Z M814.903706,420.610813 L814.26416,423.72351 L817.399065,423.106171 L814.903706,420.610813 L814.903706,420.610813 L814.903706,420.610813 L814.903706,420.610813 Z M825,417 L825,427.002578 C825,428.109075 824.105724,429 823.002578,429 L807.997422,429 C806.890925,429 806,428.101288 806,426.99267 L806,404.00733 C806,402.898338 806.89925,402 808.00853,402 L818,402 L818,408.001899 C818,409.113294 818.898081,410 820.005919,410 L824,410 L828.580107,405.419893 C829.372781,404.627219 830.631391,404.631391 831.41025,405.41025 L832.58975,406.58975 C833.366188,407.366188 833.364292,408.635708 832.580107,409.419893 L825,417 L825,417 L825,417 Z M819,402 L819,407.997071 C819,408.550973 819.450975,409 819.990778,409 L825,409 L819,402 L819,402 L819,402 Z" id="document-edit" fill="#369BF8"></path>
            <path d="M741.030769,407.173077 L737.24,404 L741.030769,400.826923 L741.030769,400.826923 L740.513846,400.322115 L735,404.9375 L729.486154,400.322115 L728.969231,400.826923 L728.969231,400.826923 L732.76,404 L728.969231,407.173077 L728.969231,407.173077 L729.486154,407.677885 L733.32,404.46875 L735,405.875 L736.68,404.46875 L740.513846,407.677885 L741.030769,407.173077 L741.030769,407.173077 L741.030769,407.173077 Z M728.282301,399 C727.574106,399 727,399.559071 727,400.246288 L727,407.753712 C727,408.442018 727.569448,409 728.282301,409 L741.717699,409 C742.425894,409 743,408.440929 743,407.753712 L743,400.246288 C743,399.557982 742.430552,399 741.717699,399 L728.282301,399 L728.282301,399 L728.282301,399 Z" id="mail-envelope-closed" fill="#66CBEC"></path>
            <path d="M734.714286,432.80837 L734.714286,434.290854 C734.714286,434.445811 734.846819,434.571429 735,434.571429 C735.157796,434.571429 735.285714,434.441211 735.285714,434.290854 L735.285714,432.80837 C735.618626,432.690702 735.857143,432.373205 735.857143,432 C735.857143,431.526613 735.473387,431.142857 735,431.142857 C734.526613,431.142857 734.142857,431.526613 734.142857,432 C734.142857,432.373205 734.381374,432.690702 734.714286,432.80837 L734.714286,432.80837 L734.714286,432.80837 Z M730.714286,428.285721 L730.714286,426.285277 C730.714286,423.918117 732.633065,422 735,422 C737.362118,422 739.285714,423.918584 739.285714,426.285277 L739.285714,428.285721 C740.233798,428.288428 741,429.057324 741,430.005416 L741,432.857143 C741,435.376736 738.95353,437.428571 736.429082,437.428571 L733.570918,437.428571 C731.049239,437.428571 729,435.381873 729,432.857143 L729,430.005416 C729,429.051189 729.767048,428.288409 730.714286,428.285721 L730.714286,428.285721 L730.714286,428.285721 L730.714286,428.285721 Z M732.428571,428.285714 L732.428571,426.286202 C732.428571,424.862427 733.579839,423.714286 735,423.714286 C736.417271,423.714286 737.571429,424.865772 737.571429,426.286202 L737.571429,428.285714 L732.428571,428.285714 L732.428571,428.285714 L732.428571,428.285714 L732.428571,428.285714 Z" id="lock-rounded" fill="#66CBEC"></path>
            <path d="M679.521739,207.043478 L646.478261,207.043478 C644.557391,207.043478 643,205.486087 643,203.565217 L643,177.478261 C643,175.557391 644.557391,174 646.478261,174 L679.521739,174 C681.442609,174 683,175.557391 683,177.478261 L683,203.565217 C683,205.486087 681.442609,207.043478 679.521739,207.043478 L679.521739,207.043478 Z M681.26087,177.478261 C681.26087,176.518261 680.481739,175.73913 679.521739,175.73913 L646.478261,175.73913 C645.518261,175.73913 644.73913,176.518261 644.73913,177.478261 L644.73913,182.695652 L681.26087,182.695652 L681.26087,177.478261 L681.26087,177.478261 Z M681.26087,184.434783 L644.73913,184.434783 L644.73913,203.565217 C644.73913,204.525217 645.518261,205.304348 646.478261,205.304348 L679.521739,205.304348 C680.481739,205.304348 681.26087,204.525217 681.26087,203.565217 L681.26087,184.434783 L681.26087,184.434783 Z M677.782609,196.608696 L676.043478,196.608696 C675.563478,196.608696 675.173913,196.22 675.173913,195.73913 L675.173913,194 C675.173913,193.52 675.563478,193.130435 676.043478,193.130435 L677.782609,193.130435 C678.263478,193.130435 678.652174,193.52 678.652174,194 L678.652174,195.73913 C678.652174,196.22 678.263478,196.608696 677.782609,196.608696 L677.782609,196.608696 Z M677.782609,190.521739 L676.043478,190.521739 C675.563478,190.521739 675.173913,190.133043 675.173913,189.652174 L675.173913,187.913043 C675.173913,187.432174 675.563478,187.043478 676.043478,187.043478 L677.782609,187.043478 C678.263478,187.043478 678.652174,187.432174 678.652174,187.913043 L678.652174,189.652174 C678.652174,190.133043 678.263478,190.521739 677.782609,190.521739 L677.782609,190.521739 Z M670.826087,196.608696 L669.086957,196.608696 C668.606957,196.608696 668.217391,196.22 668.217391,195.73913 L668.217391,194 C668.217391,193.52 668.606957,193.130435 669.086957,193.130435 L670.826087,193.130435 C671.306957,193.130435 671.695652,193.52 671.695652,194 L671.695652,195.73913 C671.695652,196.22 671.306957,196.608696 670.826087,196.608696 L670.826087,196.608696 Z M670.826087,190.521739 L669.086957,190.521739 C668.606957,190.521739 668.217391,190.133043 668.217391,189.652174 L668.217391,187.913043 C668.217391,187.432174 668.606957,187.043478 669.086957,187.043478 L670.826087,187.043478 C671.306957,187.043478 671.695652,187.432174 671.695652,187.913043 L671.695652,189.652174 C671.695652,190.133043 671.306957,190.521739 670.826087,190.521739 L670.826087,190.521739 Z M663.869565,196.608696 L662.130435,196.608696 C661.649565,196.608696 661.26087,196.22 661.26087,195.73913 L661.26087,194 C661.26087,193.52 661.649565,193.130435 662.130435,193.130435 L663.869565,193.130435 C664.350435,193.130435 664.73913,193.52 664.73913,194 L664.73913,195.73913 C664.73913,196.22 664.350435,196.608696 663.869565,196.608696 L663.869565,196.608696 Z M663.869565,190.521739 L662.130435,190.521739 C661.649565,190.521739 661.26087,190.133043 661.26087,189.652174 L661.26087,187.913043 C661.26087,187.432174 661.649565,187.043478 662.130435,187.043478 L663.869565,187.043478 C664.350435,187.043478 664.73913,187.432174 664.73913,187.913043 L664.73913,189.652174 C664.73913,190.133043 664.350435,190.521739 663.869565,190.521739 L663.869565,190.521739 Z M656.913043,202.695652 L655.173913,202.695652 C654.693043,202.695652 654.304348,202.306957 654.304348,201.826087 L654.304348,200.086957 C654.304348,199.606087 654.693043,199.217391 655.173913,199.217391 L656.913043,199.217391 C657.393913,199.217391 657.782609,199.606087 657.782609,200.086957 L657.782609,201.826087 C657.782609,202.306957 657.393913,202.695652 656.913043,202.695652 L656.913043,202.695652 Z M656.913043,196.608696 L655.173913,196.608696 C654.693043,196.608696 654.304348,196.22 654.304348,195.73913 L654.304348,194 C654.304348,193.52 654.693043,193.130435 655.173913,193.130435 L656.913043,193.130435 C657.393913,193.130435 657.782609,193.52 657.782609,194 L657.782609,195.73913 C657.782609,196.22 657.393913,196.608696 656.913043,196.608696 L656.913043,196.608696 Z M656.913043,190.521739 L655.173913,190.521739 C654.693043,190.521739 654.304348,190.133043 654.304348,189.652174 L654.304348,187.913043 C654.304348,187.432174 654.693043,187.043478 655.173913,187.043478 L656.913043,187.043478 C657.393913,187.043478 657.782609,187.432174 657.782609,187.913043 L657.782609,189.652174 C657.782609,190.133043 657.393913,190.521739 656.913043,190.521739 L656.913043,190.521739 Z M649.956522,202.695652 L648.217391,202.695652 C647.736522,202.695652 647.347826,202.306957 647.347826,201.826087 L647.347826,200.086957 C647.347826,199.606087 647.736522,199.217391 648.217391,199.217391 L649.956522,199.217391 C650.437391,199.217391 650.826087,199.606087 650.826087,200.086957 L650.826087,201.826087 C650.826087,202.306957 650.437391,202.695652 649.956522,202.695652 L649.956522,202.695652 Z M649.956522,196.608696 L648.217391,196.608696 C647.736522,196.608696 647.347826,196.22 647.347826,195.73913 L647.347826,194 C647.347826,193.52 647.736522,193.130435 648.217391,193.130435 L649.956522,193.130435 C650.437391,193.130435 650.826087,193.52 650.826087,194 L650.826087,195.73913 C650.826087,196.22 650.437391,196.608696 649.956522,196.608696 L649.956522,196.608696 Z M662.130435,199.217391 L663.869565,199.217391 C664.350435,199.217391 664.73913,199.606087 664.73913,200.086957 L664.73913,201.826087 C664.73913,202.306957 664.350435,202.695652 663.869565,202.695652 L662.130435,202.695652 C661.649565,202.695652 661.26087,202.306957 661.26087,201.826087 L661.26087,200.086957 C661.26087,199.606087 661.649565,199.217391 662.130435,199.217391 L662.130435,199.217391 Z" id="Shape" fill="#369BF8"></path>
            <path d="M763.499322,185.677069 L763.499322,185.677069 C763.499322,190.455495 760.227938,194.457748 755.80597,195.598073 L755.80597,204.483039 L760.934871,204.483039 C761.407585,204.483039 761.789688,204.865997 761.789688,205.337856 C761.789688,205.81057 761.407585,206.192673 760.934871,206.192673 L745.548168,206.192673 C745.075455,206.192673 744.693351,205.81057 744.693351,205.337856 C744.693351,204.865997 745.075455,204.483039 745.548168,204.483039 L750.677069,204.483039 L750.677069,195.598073 C746.255102,194.457748 742.983718,190.455495 742.983718,185.677069 L742.983718,185.677069 C739.678996,185.677069 737,182.998073 737,179.693351 L737,177.983718 C737,177.511859 737.382103,177.128901 737.854817,177.128901 L742.983718,177.128901 L742.983718,176.274084 C742.983718,174.857653 741.835699,173.709634 740.419267,173.709634 L740.419267,173.709634 C739.946554,173.709634 739.56445,173.326676 739.56445,172.854817 C739.56445,172.382958 739.946554,172 740.419267,172 L740.419267,172 L740.419267,172 L766.063772,172 L766.063772,172 L766.063772,172 C766.536486,172 766.918589,172.382958 766.918589,172.854817 C766.918589,173.326676 766.536486,173.709634 766.063772,173.709634 L766.063772,173.709634 C764.647341,173.709634 763.499322,174.857653 763.499322,176.274084 L763.499322,176.274084 L763.499322,177.128901 L768.628223,177.128901 C769.100936,177.128901 769.483039,177.511859 769.483039,177.983718 L769.483039,179.693351 C769.483039,182.998073 766.804043,185.677069 763.499322,185.677069 L763.499322,185.677069 Z M752.386703,204.483039 L754.096336,204.483039 L754.096336,195.891275 C753.814247,195.91521 753.530448,195.934871 753.24152,195.934871 C752.952592,195.934871 752.668792,195.91521 752.386703,195.891275 L752.386703,204.483039 L752.386703,204.483039 Z M738.709634,178.838535 L738.709634,179.693351 C738.709634,182.054355 740.622714,183.967436 742.983718,183.967436 L742.983718,178.838535 L738.709634,178.838535 L738.709634,178.838535 Z M743.819729,173.709634 C744.359973,174.42597 744.693351,175.307286 744.693351,176.274084 L744.693351,176.274084 L744.693351,185.677069 C744.693351,190.398223 748.520366,194.225237 753.24152,194.225237 C757.961818,194.225237 761.789688,190.398223 761.789688,185.677069 L761.789688,176.274084 L761.789688,176.274084 L761.789688,176.274084 C761.789688,175.307286 762.123066,174.42597 762.663311,173.709634 L743.819729,173.709634 L743.819729,173.709634 Z M767.773406,178.838535 L763.499322,178.838535 L763.499322,183.967436 C765.860326,183.967436 767.773406,182.054355 767.773406,179.693351 L767.773406,178.838535 L767.773406,178.838535 Z M742.983718,207.902307 L763.499322,207.902307 C763.972035,207.902307 764.354138,208.285265 764.354138,208.757123 C764.354138,209.229837 763.972035,209.61194 763.499322,209.61194 L742.983718,209.61194 C742.511004,209.61194 742.128901,209.229837 742.128901,208.757123 C742.128901,208.285265 742.511004,207.902307 742.983718,207.902307 L742.983718,207.902307 Z" id="Shape" fill="#369BF8"></path>
            <rect id="-" stroke="#66CBEC" stroke-width="3" filter="url(#filter-3)" x="643" y="439" width="20" height="20" rx="100"></rect>
            <path d="M857.400422,183.194272 C857.365403,183.269639 857.322772,183.34196 857.261108,183.404385 L836.016887,204.647845 C835.933908,204.790965 835.818955,204.915815 835.65528,204.97824 L825.110059,207.931998 C825.087982,207.942656 825.062859,207.944178 825.038499,207.951791 L825.002718,207.962449 C824.996628,207.964733 824.989777,207.96321 824.984448,207.965494 C824.912888,207.984526 824.842089,208.000513 824.766722,207.999752 C824.692117,208.002035 824.622841,207.988332 824.552042,207.968539 C824.536055,207.963972 824.521591,207.967017 824.505604,207.961688 C824.499514,207.959404 824.495707,207.954075 824.489617,207.951791 C824.422625,207.926669 824.364768,207.888605 824.30691,207.844451 C824.277221,207.823135 824.246008,207.804103 824.220886,207.778981 C824.195764,207.753859 824.176732,207.722646 824.155416,207.692957 C824.111262,207.635861 824.073959,207.577242 824.048076,207.51025 C824.045031,207.50416 824.040463,207.500353 824.038179,207.494263 C824.03285,207.479037 824.035896,207.463812 824.031328,207.447825 C824.012296,207.377788 823.998593,207.30775 824.000115,207.233906 C824.000115,207.157778 824.015341,207.086979 824.034373,207.015419 C824.037418,207.009329 824.035134,207.003239 824.037418,206.99791 L824.048076,206.960607 C824.05645,206.937769 824.057973,206.912647 824.067869,206.889808 L827.021627,196.344587 C827.084052,196.180151 827.208902,196.067482 827.352022,195.98298 L848.271178,175.063063 C848.301629,175.028806 848.337409,174.999877 848.368621,174.966381 L848.596243,174.738759 C848.607662,174.72734 848.622127,174.723533 848.634307,174.712875 C849.733592,173.662312 851.208949,173 852.851025,173 C856.234144,173 858.977029,175.742884 858.977029,179.126003 C858.977029,180.694997 858.371813,182.111735 857.400422,183.194272 L857.400422,183.194272 Z M854.523553,184.03853 L851.768488,181.283465 L833.771879,199.280836 C833.774924,199.286926 833.782537,199.28921 833.785582,199.2953 L835.592094,202.969988 L854.523553,184.03853 L854.523553,184.03853 Z M825.906355,206.095034 L828.026514,205.501999 L826.499391,203.975637 L825.906355,206.095034 L825.906355,206.095034 Z M826.959964,202.332038 L829.668591,205.041426 L834.327611,203.735834 C834.327611,203.735834 832.358947,199.646249 832.355902,199.644727 L828.264794,197.673017 L826.959964,202.332038 L826.959964,202.332038 Z M832.705328,198.216569 C832.711418,198.219614 832.713702,198.226466 832.719793,198.230272 L850.717163,180.23214 L847.962099,177.477075 L829.03064,196.408534 L832.705328,198.216569 L832.705328,198.216569 Z M852.827426,174.522556 C851.470829,174.522556 850.260397,175.113307 849.410049,176.040544 L849.40472,176.035215 L849.013424,176.425751 L855.574878,182.987205 L855.976071,182.58525 L855.971504,182.580682 C856.891889,181.731096 857.478073,180.524471 857.478073,179.173203 C857.478073,176.604651 855.395977,174.522556 852.827426,174.522556 L852.827426,174.522556 Z" id="Shape" fill="#369BF8"></path>
            <path d="M220.947192,501.002282 C220.844268,500.99108 220.749046,501.021187 220.67805,501.091063 L219.085318,502.684774 C218.945426,502.824107 218.983095,503.083027 219.157855,503.257508 L223.90104,508.001393 L219.157855,512.744718 C218.983095,512.919339 218.945426,513.176299 219.085318,513.316892 L220.67805,514.910043 C220.818642,515.051196 221.077283,515.031171 221.251203,514.85711 L225.994528,510.112665 L230.738554,514.85711 C230.913034,515.031171 231.170974,515.051196 231.311567,514.910043 L232.904858,513.316892 C233.044191,513.176299 233.007222,512.919339 232.832601,512.744718 L228.089276,508.001393 L232.832601,503.257508 C233.007222,503.083027 233.044191,502.824107 232.904858,502.684774 L231.311567,501.091063 C231.170974,500.951731 230.913034,500.988839 230.738554,501.1629 L225.994528,505.907345 L221.251203,501.1629 C221.163963,501.075239 221.050396,501.013485 220.947192,501.002282 L220.947192,501.002282 Z" id="close" fill="#3B3D4D"></path>
            <g id="" transform="translate(321.000000, 576.000000)">
                <rect id="Rectangle-339" stroke-opacity="0.329766757" stroke="#979797" fill="#F2F2F6" x="0" y="0" width="100" height="100" rx="100"></rect>
                <g id="" transform="translate(15.000000, 27.000000)">
                    <g id="Group-3">
                        <mask id="mask-5" fill="white">
                            <use xlink:href="#path-4"></use>
                        </mask>
                        <g id="Clip-2"></g>
                        <path d="M56.1489576,17.36424 C56.1489576,14.38584 46.3803983,11.97084 34.3303136,11.97084 C22.2802288,11.97084 12.5116695,14.38584 12.5116695,17.36424 L12.5116695,34.81284 C12.5116695,34.92204 12.5259068,35.03004 12.5520085,35.13744 C12.5259068,35.32284 12.5116695,35.50944 12.5116695,35.69724 C12.5116695,40.83504 22.2802288,45.00024 34.3303136,45.00024 C46.3803983,45.00024 56.1489576,40.83504 56.1489576,35.69724 C56.1489576,35.50944 56.1341271,35.32284 56.1086186,35.13744 C56.1341271,35.03004 56.1489576,34.92204 56.1489576,34.81284 L56.1489576,17.36424 Z" id="Fill-1" fill="#2B3D51" mask="url(#mask-5)"></path>
                    </g>
                    <path d="M34.5,0 L0,13.4996981 L34.5,27 L69,13.4996981 L34.5,0 Z" id="Fill-4" fill="#344960"></path>
                    <path d="M67.3131966,14 L34,14 L34,14.6898112 L67.3131966,14.6898112 L67.3131966,26 L68,26 L68,14.6898112 L68,14 L67.3131966,14 Z" id="Fill-6" fill="#F49D1E"></path>
                    <path d="M69,25 C68.4499572,25 68,25.6687149 68,26.4861744 L68,27.3767348 L68,28.5304587 L68,31 L68.3229256,31 L68.3229256,29.6193453 C68.3819504,29.7007098 68.4473909,29.7725395 68.5179641,29.8310202 L68.5179641,31 L68.8413174,31 L68.8413174,29.9956563 C68.893071,30.0083695 68.9456801,30.0166331 69,30.0166331 C69.0543199,30.0166331 69.106929,30.0083695 69.1586826,29.9956563 L69.1586826,31 L69.4820359,31 L69.4820359,29.8310202 C69.5526091,29.7725395 69.6180496,29.7007098 69.6770744,29.6193453 L69.6770744,31 L70,31 L70,28.5304587 L70,27.3767348 L70,26.4861744 C70,25.6687149 69.5500428,25 69,25" id="Fill-8" fill="#F49D1E"></path>
                    <g id="Group-12">
                        <mask id="mask-7" fill="white">
                            <use xlink:href="#path-6"></use>
                        </mask>
                        <g id="Clip-11"></g>
                        <path d="M69.9474407,24.31962 C69.9474407,25.20762 69.2355763,25.92702 68.3582034,25.92702 C67.4802373,25.92702 66.7683729,25.20762 66.7683729,24.31962 C66.7683729,23.43162 67.4802373,22.71222 68.3582034,22.71222 C69.2355763,22.71222 69.9474407,23.43162 69.9474407,24.31962" id="Fill-10" fill="#F49D1E" mask="url(#mask-7)"></path>
                    </g>
                </g>
            </g>
            <g id="Group-2" transform="translate(498.000000, 596.000000)">
                <rect id="Rectangle-39" fill="#63C533" x="0" y="0" width="60" height="60" rx="100"></rect>
                <g id="ok" transform="translate(17.000000, 21.000000)" fill="#FFFFFF">
                    <path d="M9.1429,18.94129 C8.70387143,18.94129 8.26558571,18.76953 7.93055714,18.42753 C7.26124286,17.74201 7.26124286,16.63241 7.93055714,15.94765 L23.0150143,0.51357 C23.6850714,-0.17119 24.7696429,-0.17119 25.4389571,0.51357 C26.1090143,1.19833 26.1090143,2.30869 25.4389571,2.99345 L10.3545,18.42753 C10.0194714,18.76953 9.58118571,18.94129 9.1429,18.94129 L9.1429,18.94129 Z" id="Shape"></path>
                    <path d="M9.25655714,18.82197 C8.81752857,18.82197 8.37924286,18.65021 8.04495714,18.30821 L0.501985714,10.59345 C-0.167328571,9.90793 -0.167328571,8.79833 0.501985714,8.11357 C1.1713,7.42881 2.25587143,7.42881 2.92592857,8.11357 L10.4681571,15.82909 C11.1374714,16.51309 11.1374714,17.62269 10.4681571,18.30897 C10.1331286,18.65021 9.6941,18.82197 9.25655714,18.82197 L9.25655714,18.82197 Z" id="Shape"></path>
                </g>
            </g>
        </g>
    </g>
</svg>